<svg xmlns="http://www.w3.org/2000/svg" fill="none" viewBox="0 0 1000 1000"><g clip-path="url(#a)"><path fill="#FCA624" d="m592 248 6.176 2.508C629.616 263.43 656.787 281.205 682 304l4 3v2l4 1v2l2 1 6 7 5 5v2h2l1 3 4 4 4 4v3h2l1 3 3 3c12.375 18.689 22.918 38.06 31 59l2.375 5.625C755 416 755 416 755 421c-6.01 3.756-11.304 6.489-18 9l-8 5c-6 3-6 3-12 5l-1 2a837.824 837.824 0 0 1-14 8c-6.46 3.284-6.46 3.284-9 6l-5 4h-3v2l-7 4-5 5-4 2-1 2-3 1-1 2h-2v2l-4 4h-2v2c-2.664 2.337-5.331 4.67-8 7a483.009 483.009 0 0 0-7 8l-5 5h-2l-2 5a496.044 496.044 0 0 1-6 8 1635.08 1635.08 0 0 0-6 9l-3.563 5c-3.136 4.561-5.803 9.138-8.437 14l-3.188 5.188c-3.05 4.84-3.05 4.84-4.812 10.812l-2 1c-1.066 3.313-2.048 6.653-3 10-1.455 4.674-2.936 9.34-4.438 14l-2.308 7.25L586 601l-4 2c-8-2-8-2-11-5-9.044-4.904-18.348-8.47-28-12-3.211-1.243-6.42-2.493-9.625-3.75-4.756-1.845-9.536-3.637-14.375-5.25-1-1-1-1-2-8-.097-6.653-.14-13.296-.133-19.95l-.003-5.936c0-4.145.001-8.29.006-12.435.005-6.325 0-12.65-.007-18.974 0-4.03.002-8.061.004-12.092l-.006-5.711c.044-24.712.044-24.712 4.139-32.902l5-5 3-5c7.48-4.488 15.266-3.482 23.766-3.512l5.63-.054c5.952-.054 11.903-.088 17.854-.121 3.996-.034 7.992-.068 11.988-.104 13.254-.114 26.508-.209 39.762-.209 5.44-1.591 5.44-1.591 8-7v-7c-8.315-3.326-16.644-6.123-25.242-8.613-4.89-1.425-9.76-2.904-14.633-4.387-15.3-4.582-30.368-8.292-46.125-11a454.55 454.55 0 0 1-11-3l-9-2a234.143 234.143 0 0 1-8-11c-6.883-6.637-14.858-8.645-24-11-7.451-.438-14.594.129-22 1l-3-9c-3.864-7.45-3.864-7.45-9-14v-3h-2v-2h-2v-2h-2v-2h-2l-6-7v-2h-2v-2h-2v-2l-4-2-6-6v-2h-2v-2l-4-2a1181.133 1181.133 0 0 1-7-8l-7-6-7-6v-2h-2v-2h-2l-5-5c-5.492-4.462-5.492-4.462-11-4l-3 3c.203 4.341.53 8.68 1 13l2 1-1 2h2l1 5 2 1 2 6h2l2 7h2c6.875 13.5 6.875 13.5 8 18h2v4h2c3 6 3 6 4 10h2l1.813 3.875c3.649 7.013 7.76 13.648 11.957 20.344C435 389 435 389 435 391h2l3 5c5.015 5.166 5.015 5.166 11 10v2h-2v6l-1 2c-.566 13.69.54 24.064 5 37l-5 5c-4.645 6.668-4.645 6.668-8 14h-2l-2 7-6 12-3 9a798.91 798.91 0 0 1-5.313 12.063c-5.362 12.08-10.049 24.283-14.437 36.75C405 555 405 555 403 558c-8.449.939-16.51 1-25 1-7.12.398-7.12.398-14 2l-8.375.438c-8.183.085-8.183.085-13.625 2.562-3.332.346-6.665.679-10 1l-8 2-6.438 1.438c-7.034 1.573-7.034 1.573-15.562 4.562l-5.563 1.813c-10.006 3.4-19.863 7.166-29.687 11.062C261 588 261 588 257 588l-1.875-4.25A224.226 224.226 0 0 0 251 575c-5-15.606-5-15.606-5-23h-2c-1.087-6.117-2-11.775-2-18h-2c-3.54-56.075-3.54-56.075 2-83l1.219-6.168C248.834 418.55 257.859 393.467 271 370l2-5h2l2-6a329.16 329.16 0 0 1 7-10l3.438-5a228.442 228.442 0 0 1 7.875-10.375c3.71-4.326 3.71-4.326 5.687-8.625l5-5c2.669-2.998 5.336-5.998 8-9l4-4h2l2-4h2l5-6a452.115 452.115 0 0 1 10-7l3-3c10.627-8 10.627-8 13-8v-2l7.813-4.125a917.815 917.815 0 0 0 15.625-8.438C383 262 383 262 385 262l1-2 5-1 1-2a660.04 660.04 0 0 1 16-6l7-2.563 7-2.437 6.875-2.438C480.565 229.047 541.783 226.709 592 248Z"/><path fill="#48B7A0" d="m656 733 4 1 4 7 4.938 7.375C679 763.531 679 763.531 679 767h2l4 8 2 1 1 4 3 4 1 3 2 2 1 5h2v3l2 1 2 4 2 2 2 6 2 2c2.018 3.657 4.018 7.324 6 11l4.375 7.563C721 837 721 837 721 839l2 1c6 11.4 6 11.4 6 14l2 1c4 8.353 4 8.353 4 11l2 1 1 2-1 2h2l1 4h-2v2c-6.955 5.318-14.16 9.156-22 13-7.722 4.235-15.353 8.63-23 13-4.64 1.74-9.299 3.433-14 5v2h-5l-1 2c-6.38 2.642-12.178 4.863-19 6l-1 2c-4.97 1.752-9.978 3.4-15 5l-7.75 2.5c-14.31 4.337-28.508 7.914-43.25 10.5a733.316 733.316 0 0 0-9.52 1.965c-6.04 1.14-12.06 1.895-18.168 2.597-6.452.748-12.881 1.52-19.312 2.438-3.812.068-7.625.085-11.438.063l-5.996-.028L518 945v-2h-2l.016-6.625c.021-10.458.036-20.917.047-31.375l.006-5.784c.02-21.868-.043-43.732-.362-65.599l-.08-5.595c-.133-8.86-.28-17.72-.447-26.58l-.157-9.575-.158-8.434C515 777 515 777 517 773c5.48-2.192 10.275-2.826 16.125-3.563 7.038-.764 7.038-.764 13.875-2.437l5.625-.438c6.329-.557 12.317-1.542 18.375-3.562l9-1 2-2 8-1c14.81-3.425 28.655-8.91 42.637-14.805C638 742 638 742 640 742l1-2c7-3 7-3 10-3l1-2 4-2ZM353 733c8.38 2.793 16.016 6.255 24 10h2v2l9 3 9 3v2h5a294.878 294.878 0 0 1 9 4l4 1 8.938 2.438c7.656 2.024 15.21 3.464 23.062 4.562l8 2c11.932 2.218 11.932 2.218 24 3l5 4c.528 6.337.791 12.411.813 18.75l.076 5.293c.059 4.319.088 8.638.111 12.957h-2l.016 5.043c.087 32.28.044 64.555-.391 96.832l-.094 8.36-.117 7.695-.095 6.788C482 941 482 941 480 945c-7.486.832-12.38.79-19.64-.293l-6.188-.912-6.422-.982-6.281-.924C428.24 939.912 415.122 937.582 402 935v-2l-4.313-.313c-8.521-1.03-15.804-3.307-23.687-6.687-6.117-1.837-12.261-3.556-18.41-5.281C350 919 350 919 344 916l-6.438-2.438C331 911 331 911 324 907c-3.663-1.343-7.33-2.677-11-4l-5-3a1597.198 1597.198 0 0 0-12-6v-2l-5-1c-8.188-4.73-16.196-9.66-24-15 .951-6.657 2.247-9.967 5.375-15.75l2.703-5.012c3.855-6.911 7.83-13.748 11.867-20.554 2.217-3.272 2.217-3.272 2.055-5.684l3-3v-2l4-4c2.879-4.915 5.452-9.904 8-15l5-7v-2l3-3c2.698-4.13 5.391-8.262 8.055-12.414C330.435 764.423 340.99 748.012 353 733Z"/><path fill="#85C27B" d="M759 457h7c4.615 4.615 4.126 14.53 5 21 3.116 25.416 2.45 53.18-4 78l-1.063 7.188L765 569l-2 1-.75 4.125C757.252 597.615 742.915 618.89 729 638l-4 6h-2l-2 4a909.148 909.148 0 0 1-9 9l-2 3c-7 6-7 6-11 8v3l-5 3c-5.71 4.255-5.71 4.255-11 9l-11 7-2 2c-8.571 5-8.571 5-11 5l-1 2-10 5-1 2a249.112 249.112 0 0 1-9.75 4.063c-1.79.712-3.578 1.425-5.422 2.16C627 714 627 714 622 715l-1 2c-9.847 3.282-19.822 5.964-30 8 1.795-5.385 7.514-7.822 12-11 40.126-30.652 66.136-66.765 88-112l4-8.25c4.402-9.43 8.25-19.045 12-28.75l2.117-5.41c5.65-14.707 10.537-29.615 15.305-44.63a514.778 514.778 0 0 1 5.281-15.483c2.479-6.661 2.479-6.661 4.297-14.477a392.574 392.574 0 0 1 5-11c-4.675 4.675-8.359 9.36-12.25 14.688l-3.766 5.136c-2.818 3.714-2.818 3.714-3.984 6.176h-2l-2 5a999.606 999.606 0 0 1-6 11h-2l-2 5-5 8-2 5c-4.545 9.318-4.545 9.318-7 13h-2l-1 6a419.768 419.768 0 0 1-6 9l-3 7-2 1-2 8h-2l-2 6c-4.506 9.395-9.275 18.298-15 27l-2 4-3.625 5.625c-3.552 4.6-3.552 4.6-3.375 7.375h-2v3l-3 2c-3.14 5.09-3.14 5.09-6 11l-2 2-3 5-4 5h-2l-1 4-3 3h-2l-1 3-1 2h-2l-2 5-4 2-1 3-2-1c.914-20.336 5.512-40.205 10-60l1.313-6.188C625.062 584.117 639.12 560.871 656 539v-2l9-9 5.375-5.875C677.85 513.986 685.372 506.92 694 500l3.656-2.996c7.195-5.857 14.408-11.165 22.344-16.004l4.188-2.875c6.749-4.383 13.782-8.208 20.812-12.125l6.875-4.063C757 459 757 459 759 459v-2Z"/><path fill="#61BB97" d="M753 656h2v2l5 1 4 4c3.631 3.053 3.631 3.053 7 4l2 3 3 1 2 2c5.17 4.926 5.17 4.926 9 6l3 3c6.56 5.286 6.56 5.286 14 9v2l4 1 4 4 3 1 1 2 4 2v2l4 2c3.982 1.991 6.94 3.88 9 8h2l3 3 3 1 5 5c12.849 10.955 12.849 10.955 27 20v5l-3 3-5 8h-2v2h-2l-2 4-4 6h-2l-2 5h-2l-2 4c-3.319 4.425-7.092 8.092-11 12l-2 3h-2l-1 4h-3l-1 4h-2v2h-2v2h-2v2h-2v2h-2l-1 4-7 6-6 7-4 1v2h-2v2h-2v2h-2v2a562.479 562.479 0 0 1-9 6l-3 3-4 3-4-2-1-5h-2c-14-22.4-14-22.4-14-26h-2c-2-3-2-3-2-6h-2c-3-5-3-5-5-9l-2-2a556.175 556.175 0 0 1-10-16l-5-8v-2h-2v-3h-2c-6-9.75-6-9.75-6-12h-2l-1-3-2-2-3.5-5.563c-2.738-5.267-2.738-5.267-5.5-6.437-2.006-3.663-4.006-7.33-6-11l-4-5c-4-7-4-7-3-14l4-2 1-2 6-3c6.833-4.737 6.833-4.737 12-11l5-3c5.166-3.982 5.166-3.982 10-9l3-3 2-3c3.25-3.25 6.52-6.48 9.813-9.688L748 662v-2l5-4Z"/><path fill="#65BC96" d="M260 650c5 2 5 2 10 8l1 3 4 4 6 6v3h3l1 4h2l5 6v2h3l1 4 4 2 6 5 3 1v2h2l3 5 3 1 5 7h-2l-2 4-4 5-3 5h-2l-1 4-5 5-5 7h-2l-1 4c-2.324 2.675-4.658 5.34-7 8l-4 7h-2l-2 4-1 2h-2l-2 5-3 5h-2l-2 5-3 5h-2l-2 7-4 4-2 4h-2l-2 6h-2l-2 5-3 4-2 5-3 3-2 4-3 3-2 5-4 5h-2l-1 3-4-2v-2l-2-1-4-5-2-1v-2h-3l-5-5v-2h-2v-2h-2v-2h-2l-4-4v-2h-2l-1-3-4-3-1-2-4-2-1-5h-2l-3.938-4.938c-3.366-5.131-3.366-5.131-7.062-6.062l-1-5h-2l-5-6-2-1-1-4h-2c-2-2-2-2-4-7 1.145-8.012 2.863-9.929 8-16l5.375-6.375L171 738l4.313-5.375c4.768-5.722 9.752-11.148 14.867-16.559a806.997 806.997 0 0 0 9.004-9.77c5.866-6.35 11.886-12.499 18.004-18.608l6.167-6.176A304.404 304.404 0 0 1 237 669l6-6h2v-2c5-5 5-5 12-9l3-2Z"/><path fill="#77C08E" d="M802 567c10.855 1.206 21.613 2.538 32 6 4.245 1.001 8.495 1.98 12.75 2.938C866.615 580.52 886.295 585.78 906 591l10.516 2.629L938 599v2h2c3.008 9.023-4.924 24.207-8 33-7.934 21.868-7.934 21.868-12 30v3h-2l-3 9a946.505 946.505 0 0 1-8 16c-5.308 10.358-5.308 10.358-10 21l-4 4-1 2-3-1-1-2-4-1v-2h-2v-2h-2v-2l-5-2c-4-2-4-2-6-4l-3-2-5-4-5-3v-2c-3.764-2-3.764-2-7-3v-2l-5-2c-5-3-5-3-10-7-6.13-4.69-6.13-4.69-13-8l-4-4c-6.235-4.04-6.235-4.04-13-7v-2h-3v-2l-5-2-8-5-3-1-3-3-3-1v-2l-5-1-1-2-3-1c1-5 1-5 5-10 8.129-16.363 15.29-33.08 21.688-50.188C799 571 799 571 802 567Z"/><path fill="#F6871D" d="m405 586 1 2c8.219-.71 8.219-.71 13-2 6.01.251 11.998.564 18 .938 10.993.75 10.993.75 22 1.062v2c8.992.705 8.992.705 18 1l-1 2 9 1-.035 7.988-.028 10.325-.025 5.271c-.348 8.322-.348 8.322 1.088 16.416l-2 5c-6.75 1.901-13.102 2.086-20.125 2.375-9.38.388-17.788 2.334-26.875 4.625l-2-1v2l-9 2c-10.605 3.198-10.605 3.198-21 7h-2v2l-8 3-7 3-1 2-6 2-4 4c-2.99 1.685-5.99 3.35-9 5l-5 4h-2v2a343.124 343.124 0 0 1-8 7l-2 2c-5-1-5-1-11-5v-2l-5-2-4-5-7-5-4-5-7-6-6-7-2-1-2-4h-2l-4-5v-2l-3-1v-3h-2c-4-6-4-6-4-8h-2c2-4 2-4 4-6l6-2 1-2a779.319 779.319 0 0 1 15-7l8.313-3.938C327 607 327 607 329 607l1-2a370.459 370.459 0 0 1 10-3l7-2.375c18.765-6.157 37.124-10.962 57-10.625l1-3Z"/><path fill="#81C38C" d="M214 564h2l1.5 5.25c2.539 7.87 5.528 15.419 8.695 23.05C228 597 228 597 230 605c-8.14 5.087-16.35 9.982-24.75 14.625-4.16 2.325-8.208 4.849-12.25 7.375a8306.22 8306.22 0 0 1-14.05 8.477c-3.994 2.351-3.994 2.351-6.95 5.523l-4 1v2l-4 2-2 2c-4.332 3.409-7.855 5.942-13 8v2h-2l-1 2c-3.64 3.033-7.3 6.04-11 9l-3 3c-2.941 2.941-5.692 5.354-9 8l-1 2h-2v2h-3l-1 3-4 5h-3v2h-3l-1 3c-3.903-1.952-5.206-7.242-7-11-4-8.54-4-8.54-4-12h-2l-3-9-3-7v-3h-2l-1.125-4c-1.41-4.51-3.004-8.96-4.688-13.375C69 612.765 69 612.765 69 601c12.895-6.447 27.79-9.224 42-11v-2l8-1c3.949-.976 7.886-2 11.813-3.063C141.684 581 141.684 581 145 581l1-2 8-1a1444.277 1444.277 0 0 0 18.938-4.438C200.297 567 200.297 567 207 567l1-2 6 1v-2Z"/><path fill="#F6AD2C" d="M830.938 191.313c5.746 1.915 8.846 4.394 13.063 8.688 2.365 4.73 1.22 10.9 1 16l-4 6h-2v2h-2l-2 4-6 7h-2v2h-2l-2 4a483.009 483.009 0 0 1-7 8l-5 6h-2l-2 5-7 6-1 2h-2l-2 4h-2l-1 4-3 3h-2v2h-2v2h-2l-2 5h-2l-2 4c-14.201 15.88-14.201 15.88-22 19-8.597.364-14.027.417-22-3-5.18-5.18-7.648-9.295-11-16-.75-8.065.12-13.874 4-21 6.227-6.228 12.886-11.807 20-17h2v-2l3-1 4-4h2l2-4c6-4 6-4 8-4l2-4 3-1 2-3 5-3c4.346-3.652 8.678-7.32 13-11l5-3.875c4.33-3.253 4.33-3.253 9-8.125 17.803-14.141 17.803-14.141 24.937-13.688Z"/><path fill="#F9B833" d="M640 68c5.771 8.08 6.391 10.392 6 20-.788 4.54-1.702 9.06-2.688 13.563l-1.91 8.746a8316.443 8316.443 0 0 1-10.694 47.071l-1.622 7.064-1.583 6.888c-1.84 8.162-3.561 16.346-5.243 24.542-1.528 6.214-3.389 12.382-6.26 18.125h-3v2c-6 3-6 3-15 5-8.953-2.027-12.896-3.91-20-10-4.024-8.048-4.723-10.418-4-19 3.247-13.951 7.906-27.329 13.188-40.625 8.736-22.124 15.986-44.79 23.367-67.395C615.157 70.843 615.157 70.843 620 66c10.372-2.305 10.628-2.017 20 2Z"/><path fill="#F5A428" d="M890 279c8 4 8 4 11 8.75 2 5.25 2 5.25 2 13.25l-3 6-3 1v2a142.738 142.738 0 0 1-8 6h-2l-1 3c-3.651 2.357-7.32 4.686-11 7a835.424 835.424 0 0 0-10 8c-3.661 2.674-7.328 5.34-11 8l-4.313 3.375c-6.103 4.72-12.399 9.151-18.687 13.625l-4.75 3.625C823 365 823 365 821 365v2c-20.793 12.696-20.793 12.696-35 12-5-2-5-2-11-6l-1-4h-2c-3.125-8.333-4-11.17-4-20 4.085-9.53 8.282-14.48 17.375-19.563C791 327 791 327 793 327v-2c24-12 24-12 26-12l1-2a779.693 779.693 0 0 1 10.738-5.39c13.84-6.864 27.532-14.044 41.137-21.36 7.01-3.72 10.14-5.25 18.125-5.25Z"/><path fill="#F7B32F" d="M749 119c5.571 4.06 7.881 6.763 11 13 0 9.867-2.878 13.625-8 22-6.586 10.7-6.586 10.7-12 22h-2l-2 6a662.496 662.496 0 0 1-7.438 13c-5.491 9.386-5.491 9.386-10.562 19l-2.5 4.125c-4.186 7.026-8.095 14.185-12.012 21.363-4.22 7.652-5.578 9.568-13.488 14.512-7.667 1.917-14.552 1.483-22-1v-2l-5-2c-5-6-5-6-8-15 0-9.425 1.407-13.028 6-21l5-5c6.006-7.158 6.006-7.158 11-15h2l2-5c2.977-3.685 5.977-7.352 9-11 4.324-5.795 4.324-5.795 8-12h2l2-4c2.64-3.686 5.31-7.35 8-11l3.938-5.438C728.496 124.628 728.496 124.628 736 119c4-1 4-1 13 0Z"/><path fill="#F7AE30" d="M184 192c6.686 3.82 12.102 8.085 18 13l3 2v2l4 2c3.687 2.975 7.354 5.975 11 9l4 3v2l5 2a549.983 549.983 0 0 1 7 7c4.897 3.826 9.94 7.386 15 11v2l4 2 6 4v2l4 2 4 2v2l4 2c7.203 5.145 9.052 6.96 12 15 .568 8.735.465 13.914-3 22-4.823 4.823-9.378 8.793-16 11-7.029.254-12.07-.267-19-2-5-4-5-4-9-8v-2h-2l-4-6-2-1v-3h-2c-3-4-3-4-3-6h-2v-2l-4-2-1-4h-2l-6-7v-2h-2l-2-5h-2c-3-4-3-4-3-6h-2v-2l-4-2-3-3v-3h-2c-3.608-3.866-6.629-7.257-9-12l-4-2-5-5v-3h-2v-2l-3-1c-3.168-5.974-4-9.074-4-16 3-6 3-6 9-11 4-1 4-1 12-1Z"/><path fill="#FBBA36" d="m386 65 5 2v2h2c4.573 10.34 7.918 20.905 11.25 31.688 4.192 13.397 8.567 26.667 13.418 39.843 3.024 8.388 5.877 16.827 8.707 25.281l1.553 4.607C435.28 192.482 435.28 192.482 434 204c-4.357 7.625-7.16 11.08-15 15-8.917 1.981-11.763 1.942-20-1-6.39-5.112-8.683-8.744-10.688-16.688L387 195l-1-3c-1.041-4.912-2.057-9.83-3.063-14.75l-1.902-9.281c-1.37-6.708-2.737-13.416-4.101-20.125-4.26-20.96-4.26-20.96-8.871-41.844-2.514-10.969-3.507-20.748-3.063-32 5.952-8.928 10.773-9.588 21-9Z"/><path fill="#F9A42C" d="M122 279c4.074 1.836 4.074 1.836 8.688 4.375l5.109 2.777L141 289c3.143 1.651 6.289 3.297 9.438 4.938a1012.612 1012.612 0 0 1 19.75 10.687c8.496 4.692 17.102 9.086 25.812 13.375 4.148 2.059 8.294 4.122 12.438 6.188l5.996 2.98A373.962 373.962 0 0 1 229 335v2h2c4.304 5.919 5.964 9.636 6.688 17-.701 7.132-1.74 11.077-5.688 17-5.973 5.299-11.823 8.718-19.938 9.438-9.202-.797-15.763-6.25-23.062-11.438l-5.5-3.438c-5.48-3.549-10.443-7.436-15.5-11.562l-7-5v-2l-5-2a277.236 277.236 0 0 1-8.188-5.813l-4.828-3.535L138 332c-3.145-2.251-6.29-4.501-9.438-6.75C111.095 312.618 111.095 312.618 105 305l-1-1c-1.118-7.637-1.131-10.694 2-18 8.4-7 8.4-7 16-7Z"/><path fill="#F9BA35" d="M513 50c4.35 3.262 5.584 6.168 8 11 .193 3.608.327 7.22.438 10.832.548 15.702 1.405 31.381 2.291 47.067.273 4.82.542 9.639.81 14.458.938 16.853.938 16.853 2.004 33.697 1.24 18.856 1.24 18.856-2.543 28.946h-2v2c-9.079 5.674-14.454 7.703-25 7l-8-4v-2l-4-2c-9.223-14.757-4.716-35.142-3.54-52.098.152-2.231.302-4.463.457-6.763.318-4.683.64-9.367.964-14.05a9642.2 9642.2 0 0 0 1.455-21.485l.937-13.702.433-6.465.424-6.05.364-5.289c.55-5.54 1.079-10.705 2.506-16.098 8.705-7.461 13.318-7.775 24-5Z"/><path fill="#F9B633" d="M273 119c6 4 6 4 10 10 4.656 6.783 4.656 6.783 10 13l2 5 4 2 2 4 3 4v2h2l1 3 3 3 2 5 3 1 1 4h2l1 3 3 3a821.026 821.026 0 0 1 6 8c2.122 2.773 4.247 5.544 6.375 8.313C351 219.029 351 219.029 351 223l2 1c.488 9.175.207 15.293-5 23-6.918 5.551-11.046 7.874-19.875 8.25-7.007-.286-10.564-2.08-16.125-6.25v-2h-2a1300.386 1300.386 0 0 1-17-31c-3.126-5.69-6.317-11.341-9.5-17l-4.5-8-3.063-5.313C274 182 274 182 274 179h-2c-5-8.625-5-8.625-5-12l-2-1-1-5h-2c-10.968-19.942-10.968-19.942-12-29 3-7 3-7 8-12 5.82-2.328 8.88-2.058 15-1Z"/><path fill="#F79A24" d="M935 390c5 3 5 3 8 10v3l2 1v9c-9.25 10.791-21.977 13.054-35.18 17.352-4.006 1.37-7.928 2.98-11.82 4.648-6.109 2.183-12.246 4.278-18.383 6.383a2847.502 2847.502 0 0 0-15.984 5.547l-8.445 2.945-7.833 2.742c-22.6 7.322-22.6 7.322-34.355 4.383v-2l-5-1c-6.096-7.112-7.565-10.033-9-19 .452-6.852 1.585-10.37 5.375-16.125C808 415 808 415 812 414v-2c26.653-6.207 53.507-11.355 80.402-16.387 5.142-.964 10.28-1.942 15.414-2.945 18.067-3.476 18.067-3.476 27.184-2.668Z"/><path fill="#F89A26" d="M103.063 393.938c14.347 3.281 14.347 3.281 28.938 5.063v2l4.812.437 6.188.563 5.874.437c5.126.563 5.126.563 10.126 2.563 7.533 1.251 15.082 2.37 22.636 3.488 9.176 1.883 15.127 4.034 21.426 11.011 4.577 7.012 4.349 13.279 3.938 21.5-2.477 7.728-4.476 9.408-11 15-11.774 2.617-19.051 1.676-30.376-1.812l-7.023-2.145-6.602-2.042c-1.724-.5-3.449-.998-5.226-1.512-5.056-1.577-9.87-3.49-14.773-5.489-16.399-6.193-32.83-12.07-49.61-17.148-8.9-3.057-14.293-5.534-20.39-12.852-.903-7.617.586-13.172 4-20 12.069-6.033 24.484-1.892 37.062.938Z"/><path fill="#F48A22" d="M189 495c4.641 4.641 7.891 8.674 10 15 .35 8.565-.231 13.694-3 22-3.632 3.508-3.632 3.508-8 6-6.647.649-13.321.983-20 1l-5.999.08a1995.3 1995.3 0 0 1-19.876.088l-7.284.01c-5.042.005-10.085.007-15.127.007-7.746.003-15.492.02-23.237.04-4.91.003-9.818.005-14.727.005l-7.039.022-6.477-.01-5.712.005C58 539 58 539 54 537v-2h-2v-3h-2c-1.297-5.188-1.29-9.658-1-15 4-8 4-8 7.75-10.438 7.063-2.102 13.892-2.12 21.25-2.562 5.942-.626 11.88-1.293 17.813-2l9.019-1.063c6.548-.623 6.548-.623 10.168-1.937 4.621-.532 9.247-1.026 13.875-1.5 9.609-.946 9.609-.946 19.125-2.5 28.617-2.477 28.617-2.477 41 0Z"/><path fill="#F38922" d="M862 496.125c1.872.22 3.745.442 5.674.67 6.11.724 12.218 1.464 18.326 2.205l13.344 1.598c4.385.529 8.77 1.058 13.156 1.59l6.254.756c27.008 3.313 27.008 3.313 33.246 7.056 4 5 4 5 6 11-.063 5-.063 5-1 10-5 6-5 6-12 8a464.615 464.615 0 0 1-16 2l-1-1a897.768 897.768 0 0 0-16.246-.063l-5.055.012c-7.156.016-14.312.044-21.467.072-56.958.2-56.958.2-68.232-3.021-5-5-5-5-8-14-.716-9.222.02-15.142 5-23 13.248-10.599 32.214-5.8 48-3.875Z"/><path fill="#F18020" d="M519 602c20.794 5.718 42.41 14.435 60 27a449.719 449.719 0 0 1-5.098 38.574c-.795 4.786-1.366 9.606-1.902 14.426l-3 6h-2v2c-14.117 13.09-29.995 24.777-49 29-1.082-12.31-1.161-24.538-1.168-36.883l-.01-6.57c-.005-4.56-.007-9.12-.007-13.68-.005-7.003-.018-14.005-.04-21.008-.003-4.435-.005-8.87-.005-13.304l-.022-6.367c.022-14.73.022-14.73 2.252-19.188Z"/><path fill="#ED811D" d="m484 665 .5 32.625.145 9.387.263 17.248c.172 12.58.172 12.58-.908 14.74-7.638 0-14.305-.638-21.813-1.813l-6.644-1.019C444.475 734.192 433.8 731.086 423 728l-6.313-1.563c-11.754-2.969-11.754-2.969-16.687-5.437v-2l-7-1c-5.59-2.22-9.956-4.638-15-8l1-3h2v-2c11.728-10.404 25.387-18.418 40-24l5-2.375c45.467-19.892 45.467-19.892 58-13.625Z"/><path fill="#E88F29" d="m480 473 5 1c.05 12.923.086 25.846.11 38.77.01 4.4.024 8.8.04 13.2.025 6.31.036 12.619.045 18.928l.032 6.001c0 4.701-.103 9.402-.227 14.101l-2 2c-8.477 0-15.763-2.028-24-4-10.613-1.873-21.283-2.92-32-4v-3h2l2-4a314.296 314.296 0 0 1 8-11h2l2-4a563.894 563.894 0 0 1 6.063-8.438l3.546-4.894 8.203-11.293C468.593 500.53 473.687 488.449 478 475l2-2Z"/><path fill="#F1A433" d="M496 407v2l5 1 3 1v2l4 2c2.502 5.434 4.014 10.082 5 16h-2l-1 5c-4.151 5.372-6.839 7.92-13 11-9 0-9 0-15-2v-2l-5-2-1-4h-2c-2.618-9.164-2.375-12.999 1-22 7.126-5.938 11.697-8 21-8Z"/></g><defs><clipPath id="a"><path fill="#fff" d="M0 0h1000v1000H0z"/></clipPath></defs></svg>