<svg width="150" height="150" viewBox="0 0 150 150" fill="none" xmlns="http://www.w3.org/2000/svg">
<g clip-path="url(#clip0_3_2)">
<path d="M88.8 37.2L89.7264 37.5762C94.4424 39.5145 98.518 42.1807 102.3 45.6L102.9 46.05V46.35L103.5 46.5V46.8L103.8 46.95L104.7 48L105.45 48.75V49.05H105.75L105.9 49.5L106.5 50.1L107.1 50.7V51.15H107.4L107.55 51.6L108 52.05C109.856 54.8533 111.438 57.759 112.65 60.9L113.006 61.7437C113.25 62.4 113.25 62.4 113.25 63.15C112.348 63.7134 111.554 64.1233 110.55 64.5L109.35 65.25C108.45 65.7 108.45 65.7 107.55 66L107.4 66.3C106.704 66.7067 106.004 67.1068 105.3 67.5C104.331 67.9926 104.331 67.9926 103.95 68.4L103.2 69H102.75V69.3L101.7 69.9L100.95 70.65L100.35 70.95L100.2 71.25L99.75 71.4L99.6 71.7H99.3V72L98.7 72.6H98.4V72.9C98.0004 73.2505 97.6003 73.6005 97.2 73.95C96.8456 74.3461 96.4955 74.7461 96.15 75.15L95.4 75.9H95.1L94.8 76.65C94.504 77.053 94.204 77.453 93.9 77.85C93.5985 78.2989 93.2985 78.7491 93 79.2L92.4655 79.95C91.9951 80.6341 91.5951 81.3207 91.2 82.05L90.7218 82.8282C90.2643 83.5542 90.2643 83.5542 90 84.45L89.7 84.6C89.5401 85.0969 89.3928 85.5979 89.25 86.1C89.0317 86.8011 88.8096 87.501 88.5843 88.2L88.2381 89.2875L87.9 90.15L87.3 90.45C86.1 90.15 86.1 90.15 85.65 89.7C84.2934 88.9644 82.8978 88.4295 81.45 87.9C80.9683 87.7135 80.487 87.526 80.0062 87.3375C79.2928 87.0607 78.5758 86.7919 77.85 86.55C77.7 86.4 77.7 86.4 77.55 85.35C77.5354 84.352 77.529 83.3556 77.53 82.3575L77.5296 81.4671C77.5296 80.8453 77.5297 80.2236 77.5305 79.6018C77.5312 78.6531 77.5305 77.7043 77.5294 76.7557C77.5294 76.1512 77.5297 75.5466 77.53 74.9419L77.5291 74.0853C77.5357 70.3785 77.5357 70.3785 78.15 69.15L78.9 68.4L79.35 67.65C80.472 66.9768 81.6399 67.1277 82.9149 67.1232L83.7594 67.1151C84.6522 67.107 85.5448 67.1019 86.4375 67.0969C87.0369 67.0918 87.6363 67.0867 88.2357 67.0813C90.2238 67.0642 92.2119 67.05 94.2 67.05C95.016 66.8113 95.016 66.8113 95.4 66V64.95C94.1527 64.4511 92.9034 64.0315 91.6137 63.658C90.8802 63.4443 90.1497 63.2224 89.4187 63C87.1237 62.3127 84.8635 61.7562 82.5 61.35C81.9481 61.2069 81.3981 61.0569 80.85 60.9L79.5 60.6C79.0841 60.0617 78.6839 59.5115 78.3 58.95C77.2675 57.9544 76.0713 57.6532 74.7 57.3C73.5823 57.2343 72.5109 57.3193 71.4 57.45L70.95 56.1C70.3704 54.9825 70.3704 54.9825 69.6 54V53.55H69.3V53.25H69V52.95H68.7V52.65H68.4L67.5 51.6V51.3H67.2V51H66.9V50.7L66.3 50.4L65.4 49.5V49.2H65.1V48.9L64.5 48.6C64.1482 48.2016 63.7982 47.8015 63.45 47.4L62.4 46.5L61.35 45.6V45.3H61.05V45H60.75L60 44.25C59.1762 43.5807 59.1762 43.5807 58.35 43.65L57.9 44.1C57.9304 44.7511 57.9795 45.402 58.05 46.05L58.35 46.2L58.2 46.5H58.5L58.65 47.25L58.95 47.4L59.25 48.3H59.55L59.85 49.35H60.15C61.1812 51.375 61.1812 51.375 61.35 52.05H61.65V52.65H61.95C62.4 53.55 62.4 53.55 62.55 54.15H62.85L63.1219 54.7312C63.6693 55.7832 64.2859 56.7784 64.9155 57.7828C65.25 58.35 65.25 58.35 65.25 58.65H65.55L66 59.4C66.7522 60.1749 66.7522 60.1749 67.65 60.9V61.2H67.35V62.1L67.2 62.4C67.1151 64.4535 67.281 66.0096 67.95 67.95L67.2 68.7C66.5032 69.7002 66.5032 69.7002 66 70.8H65.7L65.4 71.85L64.5 73.65L64.05 75C63.7893 75.6053 63.5237 76.2085 63.253 76.8094C62.4487 78.6214 61.7457 80.4519 61.0875 82.3219C60.75 83.25 60.75 83.25 60.45 83.7C59.1826 83.8408 57.9735 83.85 56.7 83.85C55.632 83.9097 55.632 83.9097 54.6 84.15L53.3437 84.2157C52.1163 84.2284 52.1163 84.2284 51.3 84.6C50.8002 84.6519 50.3002 84.7018 49.8 84.75L48.6 85.05L47.6343 85.2657C46.5792 85.5016 46.5792 85.5016 45.3 85.95L44.4655 86.2219C42.9646 86.7319 41.4861 87.2968 40.0125 87.8812C39.15 88.2 39.15 88.2 38.55 88.2L38.2687 87.5625C38.0719 87.1206 37.8656 86.683 37.65 86.25C36.9 83.9091 36.9 83.9091 36.9 82.8H36.6C36.4369 81.8824 36.3 81.0337 36.3 80.1H36C35.469 71.6887 35.469 71.6887 36.3 67.65L36.4828 66.7248C37.3251 62.7825 38.6788 59.02 40.65 55.5L40.95 54.75H41.25L41.55 53.85C41.8907 53.3436 42.2408 52.8435 42.6 52.35L43.1157 51.6C43.4946 51.0701 43.8885 50.5512 44.2969 50.0437C44.8534 49.3948 44.8534 49.3948 45.15 48.75L45.9 48C46.3004 47.5503 46.7004 47.1003 47.1 46.65L47.7 46.05H48L48.3 45.45H48.6L49.35 44.55C49.8453 44.1933 50.3453 43.8433 50.85 43.5L51.3 43.05C52.894 41.85 52.894 41.85 53.25 41.85V41.55L54.4219 40.9312C55.2073 40.5169 55.9885 40.095 56.7657 39.6655C57.45 39.3 57.45 39.3 57.75 39.3L57.9 39L58.65 38.85L58.8 38.55C59.5961 38.2396 60.3961 37.9396 61.2 37.65L62.25 37.2655L63.3 36.9L64.3312 36.5343C72.0847 34.357 81.2674 34.0063 88.8 37.2Z" fill="#FCA624"/>
<path d="M98.4 109.95L99 110.1L99.6 111.15L100.341 112.256C101.85 114.53 101.85 114.53 101.85 115.05H102.15L102.75 116.25L103.05 116.4L103.2 117L103.65 117.6L103.8 118.05L104.1 118.35L104.25 119.1H104.55V119.55L104.85 119.7L105.15 120.3L105.45 120.6L105.75 121.5L106.05 121.8C106.353 122.349 106.653 122.899 106.95 123.45L107.606 124.584C108.15 125.55 108.15 125.55 108.15 125.85L108.45 126C109.35 127.71 109.35 127.71 109.35 128.1L109.65 128.25C110.25 129.503 110.25 129.503 110.25 129.9L110.55 130.05L110.7 130.35L110.55 130.65H110.85L111 131.25H110.7V131.55C109.657 132.348 108.576 132.923 107.4 133.5C106.242 134.135 105.097 134.795 103.95 135.45C103.254 135.711 102.555 135.965 101.85 136.2V136.5H101.1L100.95 136.8C99.993 137.196 99.1233 137.529 98.1 137.7L97.95 138C97.2045 138.263 96.4533 138.51 95.7 138.75L94.5375 139.125C92.391 139.776 90.2613 140.312 88.05 140.7C87.5734 140.795 87.0974 140.893 86.622 140.995C85.716 141.166 84.813 141.279 83.8968 141.384C82.929 141.497 81.9647 141.612 81 141.75C80.4282 141.76 79.8563 141.763 79.2843 141.759L78.3849 141.755L77.7 141.75V141.45H77.4L77.4024 140.456C77.4056 138.888 77.4078 137.319 77.4095 135.75L77.4104 134.882C77.4134 131.602 77.4039 128.323 77.3561 125.043L77.3441 124.203C77.3241 122.874 77.302 121.545 77.277 120.216L77.2535 118.78L77.2298 117.515C77.25 116.55 77.25 116.55 77.55 115.95C78.372 115.621 79.0913 115.526 79.9688 115.416C81.0245 115.301 81.0245 115.301 82.05 115.05L82.8938 114.984C83.8431 114.901 84.7413 114.753 85.65 114.45L87 114.3L87.3 114L88.5 113.85C90.7215 113.336 92.7982 112.514 94.8955 111.629C95.7 111.3 95.7 111.3 96 111.3L96.15 111C97.2 110.55 97.2 110.55 97.65 110.55L97.8 110.25L98.4 109.95Z" fill="#48B7A0"/>
<path d="M52.95 109.95C54.207 110.369 55.3524 110.888 56.55 111.45H56.85V111.75L58.2 112.2L59.55 112.65V112.95H60.3C60.7533 113.142 61.2034 113.342 61.65 113.55L62.25 113.7L63.5907 114.066C64.7391 114.369 65.8722 114.585 67.05 114.75L68.25 115.05C70.0398 115.383 70.0398 115.383 71.85 115.5L72.6 116.1C72.6792 117.051 72.7186 117.962 72.7219 118.913L72.7333 119.706C72.7422 120.354 72.7465 121.002 72.75 121.65H72.45L72.4524 122.406C72.4654 127.248 72.459 132.09 72.3937 136.931L72.3796 138.185L72.3621 139.34L72.3478 140.358C72.3 141.15 72.3 141.15 72 141.75C70.8771 141.875 70.143 141.869 69.054 141.706L68.1258 141.569L67.1625 141.422L66.2203 141.283C64.236 140.987 62.2683 140.637 60.3 140.25V139.95L59.653 139.903C58.3749 139.749 57.2824 139.407 56.1 138.9C55.1824 138.624 54.2608 138.367 53.3385 138.108C52.5 137.85 52.5 137.85 51.6 137.4L50.6343 137.034C49.65 136.65 49.65 136.65 48.6 136.05C48.0505 135.849 47.5005 135.648 46.95 135.45L46.2 135C45.6012 134.698 45.0012 134.398 44.4 134.1V133.8L43.65 133.65C42.4218 132.941 41.2206 132.201 40.05 131.4C40.1926 130.401 40.387 129.905 40.8562 129.038L41.2617 128.286C41.8399 127.249 42.4362 126.224 43.0417 125.203C43.3743 124.712 43.3743 124.712 43.35 124.35L43.8 123.9V123.6L44.4 123C44.8318 122.263 45.2178 121.514 45.6 120.75L46.35 119.7V119.4L46.8 118.95C47.2047 118.331 47.6086 117.711 48.0082 117.088C49.5652 114.663 51.1485 112.202 52.95 109.95Z" fill="#48B7A0"/>
<path d="M113.85 68.55H114.9C115.592 69.2422 115.519 70.7295 115.65 71.7C116.117 75.5124 116.017 79.677 115.05 83.4L114.891 84.4782L114.75 85.35L114.45 85.5L114.337 86.1187C113.588 89.6422 111.437 92.8335 109.35 95.7L108.75 96.6H108.45L108.15 97.2C107.703 97.6531 107.253 98.1031 106.8 98.55L106.5 99C105.45 99.9 105.45 99.9 104.85 100.2V100.65L104.1 101.1C103.243 101.738 103.243 101.738 102.45 102.45L100.8 103.5L100.5 103.8C99.2143 104.55 99.2143 104.55 98.85 104.55L98.7 104.85L97.2 105.6L97.05 105.9C96.5669 106.113 96.0792 106.317 95.5875 106.509C95.319 106.616 95.0508 106.723 94.7742 106.833C94.05 107.1 94.05 107.1 93.3 107.25L93.15 107.55C91.6729 108.042 90.1767 108.445 88.65 108.75C88.9192 107.942 89.7771 107.577 90.45 107.1C96.4689 102.502 100.37 97.0852 103.65 90.3L104.25 89.0625C104.91 87.648 105.487 86.2057 106.05 84.75L106.368 83.9385C107.215 81.7324 107.948 79.4962 108.663 77.244C108.915 76.4657 109.179 75.6914 109.455 74.9215C109.827 73.9224 109.827 73.9224 110.1 72.75C110.341 72.1961 110.591 71.6461 110.85 71.1C110.149 71.8012 109.596 72.504 109.012 73.3032L108.448 74.0736C108.025 74.6307 108.025 74.6307 107.85 75H107.55L107.25 75.75C106.954 76.3019 106.654 76.8519 106.35 77.4H106.05L105.75 78.15L105 79.35L104.7 80.1C104.018 81.4977 104.018 81.4977 103.65 82.05H103.35L103.2 82.95C102.906 83.4038 102.606 83.8539 102.3 84.3L101.85 85.35L101.55 85.5L101.25 86.7H100.95L100.65 87.6C99.9741 89.0092 99.2587 90.3447 98.4 91.65L98.1 92.25L97.5562 93.0937C97.0234 93.7837 97.0234 93.7837 97.05 94.2H96.75V94.65L96.3 94.95C95.829 95.7135 95.829 95.7135 95.4 96.6L95.1 96.9L94.65 97.65L94.05 98.4H93.75L93.6 99L93.15 99.45H92.85L92.7 99.9L92.55 100.2H92.25L91.95 100.95L91.35 101.25L91.2 101.7L90.9 101.55C91.0371 98.4996 91.7268 95.5192 92.4 92.55L92.5969 91.6218C93.7593 87.6175 95.868 84.1306 98.4 80.85V80.55L99.75 79.2L100.556 78.3187C101.677 77.0979 102.806 76.038 104.1 75L104.648 74.5506C105.728 73.672 106.81 72.8758 108 72.15L108.628 71.7187C109.641 71.0613 110.695 70.4875 111.75 69.9L112.781 69.2905C113.55 68.85 113.55 68.85 113.85 68.85V68.55Z" fill="#85C27B"/>
<path d="M112.95 98.4H113.25V98.7L114 98.85L114.6 99.45C115.145 99.9079 115.145 99.9079 115.65 100.05L115.95 100.5L116.4 100.65L116.7 100.95C117.475 101.689 117.475 101.689 118.05 101.85L118.5 102.3C119.484 103.093 119.484 103.093 120.6 103.65V103.95L121.2 104.1L121.8 104.7L122.25 104.85L122.4 105.15L123 105.45V105.75L123.6 106.05C124.197 106.349 124.641 106.632 124.95 107.25H125.25L125.7 107.7L126.15 107.85L126.9 108.6C128.827 110.243 128.827 110.243 130.95 111.6V112.35L130.5 112.8L129.75 114H129.45V114.3H129.15L128.85 114.9L128.25 115.8H127.95L127.65 116.55H127.35L127.05 117.15C126.552 117.814 125.986 118.364 125.4 118.95L125.1 119.4H124.8L124.65 120H124.2L124.05 120.6H123.75V120.9H123.45V121.2H123.15V121.5H122.85V121.8H122.55L122.4 122.4L121.35 123.3L120.45 124.35L119.85 124.5V124.8H119.55V125.1H119.25V125.4H118.95V125.7C118.503 126.004 118.053 126.304 117.6 126.6L117.15 127.05L116.55 127.5L115.95 127.2L115.8 126.45H115.5C113.4 123.09 113.4 123.09 113.4 122.55H113.1C112.8 122.1 112.8 122.1 112.8 121.65H112.5C112.05 120.9 112.05 120.9 111.75 120.3L111.45 120C110.936 119.209 110.436 118.408 109.95 117.6L109.2 116.4V116.1H108.9V115.65H108.6C107.7 114.187 107.7 114.187 107.7 113.85H107.4L107.25 113.4L106.95 113.1L106.425 112.266C106.014 111.475 106.014 111.475 105.6 111.3C105.299 110.751 104.999 110.2 104.7 109.65L104.1 108.9C103.5 107.85 103.5 107.85 103.65 106.8L104.25 106.5L104.4 106.2L105.3 105.75C106.325 105.039 106.325 105.039 107.1 104.1L107.85 103.65C108.625 103.053 108.625 103.053 109.35 102.3L109.8 101.85L110.1 101.4C110.587 100.912 111.078 100.428 111.572 99.9468L112.2 99.3V99L112.95 98.4Z" fill="#61BB97"/>
<path d="M39 97.5C39.75 97.8 39.75 97.8 40.5 98.7L40.65 99.15L41.25 99.75L42.15 100.65V101.1H42.6L42.75 101.7H43.05L43.8 102.6V102.9H44.25L44.4 103.5L45 103.8L45.9 104.55L46.35 104.7V105H46.65L47.1 105.75L47.55 105.9L48.3 106.95H48L47.7 107.55L47.1 108.3L46.65 109.05H46.35L46.2 109.65L45.45 110.4L44.7 111.45H44.4L44.25 112.05C43.9014 112.451 43.5513 112.851 43.2 113.25L42.6 114.3H42.3L42 114.9L41.85 115.2H41.55L41.25 115.95L40.8 116.7H40.5L40.2 117.45L39.75 118.2H39.45L39.15 119.25L38.55 119.85L38.25 120.45H37.95L37.65 121.35H37.35L37.05 122.1L36.6 122.7L36.3 123.45L35.85 123.9L35.55 124.5L35.1 124.95L34.8 125.7L34.2 126.45H33.9L33.75 126.9L33.15 126.6V126.3L32.85 126.15L32.25 125.4L31.95 125.25V124.95H31.5L30.75 124.2V123.9H30.45V123.6H30.15V123.3H29.85L29.25 122.7V122.4H28.95L28.8 121.95L28.2 121.5L28.05 121.2L27.45 120.9L27.3 120.15H27L26.4093 119.409C25.9044 118.64 25.9044 118.64 25.35 118.5L25.2 117.75H24.9L24.15 116.85L23.85 116.7L23.7 116.1H23.4C23.1 115.8 23.1 115.8 22.8 115.05C22.9717 113.848 23.2294 113.561 24 112.65L24.8062 111.694L25.65 110.7L26.2969 109.894C27.0121 109.035 27.7597 108.222 28.527 107.41C28.9812 106.925 29.4314 106.437 29.8776 105.944C30.7575 104.992 31.6605 104.07 32.5782 103.153L33.5032 102.227C34.17 101.576 34.8459 100.959 35.55 100.35L36.45 99.45H36.75V99.15C37.5 98.4 37.5 98.4 38.55 97.8L39 97.5Z" fill="#65BC96"/>
<path d="M120.3 85.05C121.928 85.2309 123.542 85.4307 125.1 85.95C125.737 86.1001 126.374 86.247 127.012 86.3907C129.992 87.078 132.944 87.867 135.9 88.65L137.477 89.0443L140.7 89.85V90.15H141C141.451 91.5034 140.261 93.781 139.8 95.1C138.61 98.3802 138.61 98.3802 138 99.6V100.05H137.7L137.25 101.4C136.858 102.204 136.458 103.004 136.05 103.8C135.254 105.354 135.254 105.354 134.55 106.95L133.95 107.55L133.8 107.85L133.35 107.7L133.2 107.4L132.6 107.25V106.95H132.3V106.65H132V106.35L131.25 106.05C130.65 105.75 130.65 105.75 130.35 105.45L129.9 105.15L129.15 104.55L128.4 104.1V103.8C127.835 103.5 127.835 103.5 127.35 103.35V103.05L126.6 102.75C125.85 102.3 125.85 102.3 125.1 101.7C124.18 100.996 124.18 100.996 123.15 100.5L122.55 99.9C121.615 99.294 121.615 99.294 120.6 98.85V98.55H120.15V98.25L119.4 97.95L118.2 97.2L117.75 97.05L117.3 96.6L116.85 96.45V96.15L116.1 96L115.95 95.7L115.5 95.55C115.65 94.8 115.65 94.8 116.25 94.05C117.469 91.5955 118.543 89.088 119.503 86.5218C119.85 85.65 119.85 85.65 120.3 85.05Z" fill="#77C08E"/>
<path d="M60.75 87.9L60.9 88.2C62.1328 88.0935 62.1328 88.0935 62.85 87.9C63.7515 87.9376 64.6497 87.9846 65.55 88.0407C67.1989 88.1532 67.1989 88.1532 68.85 88.2V88.5C70.1988 88.6057 70.1988 88.6057 71.55 88.65L71.4 88.95L72.75 89.1L72.7447 90.2982L72.7405 91.8469L72.7368 92.6376C72.6846 93.8859 72.6846 93.8859 72.9 95.1L72.6 95.85C71.5875 96.1351 70.6347 96.1629 69.5812 96.2062C68.1742 96.2644 66.913 96.5563 65.55 96.9L65.25 96.75V97.05L63.9 97.35C62.3092 97.8297 62.3092 97.8297 60.75 98.4H60.45V98.7L59.25 99.15L58.2 99.6L58.05 99.9L57.15 100.2L56.55 100.8C56.1015 101.053 55.6515 101.302 55.2 101.55L54.45 102.15H54.15V102.45C53.7554 102.806 53.3554 103.156 52.95 103.5L52.65 103.8C51.9 103.65 51.9 103.65 51 103.05V102.75L50.25 102.45L49.65 101.7L48.6 100.95L48 100.2L46.95 99.3L46.05 98.25L45.75 98.1L45.45 97.5H45.15L44.55 96.75V96.45L44.1 96.3V95.85H43.8C43.2 94.95 43.2 94.95 43.2 94.65H42.9C43.2 94.05 43.2 94.05 43.5 93.75L44.4 93.45L44.55 93.15C45.2963 92.792 46.0463 92.442 46.8 92.1L48.0469 91.5093C49.05 91.05 49.05 91.05 49.35 91.05L49.5 90.75C49.9978 90.5929 50.4979 90.4429 51 90.3L52.05 89.9437C54.8647 89.0202 57.6186 88.2994 60.6 88.35L60.75 87.9Z" fill="#F6871D"/>
<path d="M32.1 84.6H32.4L32.625 85.3875C33.0059 86.568 33.4542 87.7004 33.9293 88.845C34.2 89.55 34.2 89.55 34.5 90.75C33.279 91.5131 32.0475 92.2473 30.7875 92.9438C30.1635 93.2925 29.5563 93.6711 28.95 94.05C28.248 94.4745 27.5454 94.8984 26.8425 95.3216C26.2434 95.6742 26.2434 95.6742 25.8 96.15L25.2 96.3V96.6L24.6 96.9L24.3 97.2C23.6502 97.7114 23.1218 98.0913 22.35 98.4V98.7H22.05L21.9 99C21.354 99.455 20.805 99.906 20.25 100.35L19.8 100.8C19.3589 101.241 18.9462 101.603 18.45 102L18.3 102.3H18V102.6H17.55L17.4 103.05L16.8 103.8H16.35V104.1H15.9L15.75 104.55C15.1646 104.257 14.9691 103.464 14.7 102.9C14.1 101.619 14.1 101.619 14.1 101.1H13.8L13.35 99.75L12.9 98.7V98.25H12.6L12.4313 97.65C12.2198 96.9735 11.9807 96.306 11.7281 95.6438C10.35 91.9148 10.35 91.9148 10.35 90.15C12.2843 89.183 14.5185 88.7664 16.65 88.5V88.2L17.85 88.05C18.4424 87.9036 19.0329 87.75 19.622 87.5906C21.2526 87.15 21.2526 87.15 21.75 87.15L21.9 86.85L23.1 86.7C24.0484 86.4845 24.9953 86.2626 25.9407 86.0343C30.0446 85.05 30.0446 85.05 31.05 85.05L31.2 84.75L32.1 84.9V84.6Z" fill="#81C38C"/>
<path d="M124.641 28.697C125.503 28.9842 125.968 29.3561 126.6 30.0002C126.955 30.7097 126.783 31.6352 126.75 32.4002L126.15 33.3002H125.85V33.6002H125.55L125.25 34.2002L124.35 35.2502H124.05V35.5502H123.75L123.45 36.1502C123.105 36.554 122.755 36.954 122.4 37.3502L121.65 38.2502H121.35L121.05 39.0002L120 39.9002L119.85 40.2002H119.55L119.25 40.8002H118.95L118.8 41.4002L118.35 41.8502H118.05V42.1502H117.75V42.4502H117.45L117.15 43.2002H116.85L116.55 43.8002C114.42 46.1822 114.42 46.1822 113.25 46.6502C111.961 46.7048 111.146 46.7127 109.95 46.2002C109.173 45.4232 108.803 44.8059 108.3 43.8002C108.188 42.5904 108.318 41.7191 108.9 40.6502C109.834 39.716 110.833 38.8791 111.9 38.1002H112.2V37.8002L112.65 37.6502L113.25 37.0502H113.55L113.85 36.4502C114.75 35.8502 114.75 35.8502 115.05 35.8502L115.35 35.2502L115.8 35.1002L116.1 34.6502L116.85 34.2002C117.502 33.6524 118.152 33.1022 118.8 32.5502L119.55 31.9689C120.2 31.481 120.2 31.481 120.9 30.7502C123.571 28.629 123.571 28.629 124.641 28.697Z" fill="#F6AD2C"/>
<path d="M96 10.2C96.8657 11.412 96.9587 11.7588 96.9 13.2C96.7818 13.881 96.6447 14.559 96.4968 15.2345L96.2103 16.5464C95.6824 18.9014 95.1477 21.255 94.6062 23.607L94.3629 24.6666L94.1255 25.6998C93.8495 26.9241 93.5913 28.1517 93.339 29.3811C93.1098 30.3132 92.8307 31.2384 92.4 32.0999H91.95V32.3999C91.05 32.8499 91.05 32.8499 89.7 33.1499C88.3571 32.8458 87.7656 32.5634 86.7 31.6499C86.0964 30.4427 85.9916 30.0872 86.1 28.7999C86.5871 26.7072 87.2859 24.7005 88.0782 22.7061C89.3886 19.3875 90.4761 15.9876 91.5833 12.5969C92.2736 10.6265 92.2736 10.6265 93 9.9C94.5558 9.55425 94.5942 9.59745 96 10.2Z" fill="#F9B833"/>
<path d="M133.5 41.85C134.7 42.45 134.7 42.45 135.15 43.1625C135.45 43.95 135.45 43.95 135.45 45.15L135 46.05L134.55 46.2V46.5C134.161 46.8139 133.76 47.1141 133.35 47.4H133.05L132.9 47.85C132.352 48.2036 131.802 48.5529 131.25 48.9C130.747 49.2962 130.247 49.6962 129.75 50.1C129.201 50.5011 128.651 50.901 128.1 51.3L127.453 51.8063C126.538 52.5143 125.593 53.1789 124.65 53.85L123.938 54.3938C123.45 54.75 123.45 54.75 123.15 54.75V55.05C120.031 56.9544 120.031 56.9544 117.9 56.85C117.15 56.55 117.15 56.55 116.25 55.95L116.1 55.35H115.8C115.331 54.1001 115.2 53.6745 115.2 52.35C115.813 50.9205 116.442 50.178 117.806 49.4156C118.65 49.05 118.65 49.05 118.95 49.05V48.75C122.55 46.95 122.55 46.95 122.85 46.95L123 46.65C123.535 46.3764 124.072 46.1069 124.611 45.8415C126.687 44.8119 128.741 43.7349 130.781 42.6375C131.833 42.0795 132.302 41.85 133.5 41.85Z" fill="#F5A428"/>
<path d="M112.35 17.85C113.186 18.459 113.532 18.8644 114 19.8C114 21.28 113.568 21.8437 112.8 23.1C111.812 24.705 111.812 24.705 111 26.4H110.7L110.4 27.3C110.035 27.9542 109.664 28.6042 109.284 29.25C108.461 30.6579 108.461 30.6579 107.7 32.1L107.325 32.7187C106.697 33.7726 106.111 34.8465 105.523 35.9232C104.89 37.071 104.687 37.3584 103.5 38.1C102.35 38.3875 101.317 38.3224 100.2 37.95V37.65L99.45 37.35C98.7 36.45 98.7 36.45 98.25 35.1C98.25 33.6862 98.4611 33.1458 99.15 31.95L99.9 31.2C100.801 30.1263 100.801 30.1263 101.55 28.95H101.85L102.15 28.2C102.597 27.6472 103.047 27.0972 103.5 26.55C104.149 25.6807 104.149 25.6807 104.7 24.75H105L105.3 24.15C105.696 23.5971 106.097 23.0475 106.5 22.5L107.091 21.6843C109.274 18.6942 109.274 18.6942 110.4 17.85C111 17.7 111 17.7 112.35 17.85Z" fill="#F7B32F"/>
<path d="M27.6 28.8C28.6029 29.373 29.4153 30.0127 30.3 30.75L30.75 31.05V31.35L31.35 31.65C31.9031 32.0962 32.4531 32.5462 33 33L33.6 33.45V33.75L34.35 34.05C34.7031 34.3968 35.0532 34.7469 35.4 35.1C36.1346 35.6739 36.891 36.2079 37.65 36.75V37.05L38.25 37.35L39.15 37.95V38.25L39.75 38.55L40.35 38.85V39.15L40.95 39.45C42.0305 40.2217 42.3078 40.494 42.75 41.7C42.8352 43.0102 42.8198 43.7871 42.3 45C41.5766 45.7234 40.8933 46.3189 39.9 46.65C38.8457 46.6881 38.0895 46.6099 37.05 46.35C36.3 45.75 36.3 45.75 35.7 45.15V44.85H35.4L34.8 43.95L34.5 43.8V43.35H34.2C33.75 42.75 33.75 42.75 33.75 42.45H33.45V42.15L32.85 41.85L32.7 41.25H32.4L31.5 40.2V39.9H31.2L30.9 39.15H30.6C30.15 38.55 30.15 38.55 30.15 38.25H29.85V37.95L29.25 37.65L28.8 37.2V36.75H28.5C27.9588 36.1701 27.5057 35.6614 27.15 34.95L26.55 34.65L25.8 33.9V33.45H25.5V33.15L25.05 33C24.5748 32.1039 24.45 31.6389 24.45 30.6C24.9 29.7 24.9 29.7 25.8 28.95C26.4 28.8 26.4 28.8 27.6 28.8Z" fill="#F7AE30"/>
<path d="M57.9 9.75L58.65 10.05V10.35H58.95C59.636 11.901 60.1377 13.4857 60.6375 15.1032C61.2663 17.1127 61.9226 19.1032 62.6502 21.0796C63.1038 22.3378 63.5318 23.6037 63.9563 24.8718L64.1892 25.5628C65.292 28.8723 65.292 28.8723 65.1 30.6C64.4465 31.7437 64.026 32.262 62.85 32.85C61.5125 33.1471 61.0856 33.1413 59.85 32.7C58.8915 31.9332 58.5476 31.3884 58.2468 30.1968L58.05 29.25L57.9 28.8C57.7439 28.0632 57.5915 27.3255 57.4406 26.5875L57.1553 25.1953C56.9498 24.1892 56.7447 23.1829 56.5401 22.1766C55.9011 19.0326 55.9011 19.0326 55.2095 15.9C54.8324 14.2546 54.6834 12.7878 54.75 11.1C55.6428 9.7608 56.366 9.6618 57.9 9.75Z" fill="#FBBA36"/>
<path d="M18.3 41.85C18.9111 42.1254 18.9111 42.1254 19.6032 42.5063L20.3696 42.9228L21.15 43.35C21.6215 43.5977 22.0934 43.8446 22.5657 44.0907C23.5591 44.6141 24.5467 45.1484 25.5282 45.6938C26.8026 46.3976 28.0935 47.0567 29.4 47.7C30.0222 48.0089 30.6441 48.3183 31.2657 48.6282L32.1651 49.0752C32.902 49.4507 33.6305 49.8423 34.35 50.25V50.55H34.65C35.2956 51.4379 35.5446 51.9954 35.6532 53.1C35.5481 54.1698 35.3922 54.7616 34.8 55.65C33.9041 56.4449 33.0266 56.9577 31.8093 57.0657C30.429 56.9462 29.4449 56.1282 28.35 55.35L27.525 54.8343C26.703 54.302 25.9586 53.7189 25.2 53.1L24.15 52.35V52.05L23.4 51.75C22.9854 51.4668 22.5759 51.1761 22.1718 50.8781L21.4476 50.3478L20.7 49.8C20.2283 49.4624 19.7565 49.1249 19.2843 48.7875C16.6643 46.8927 16.6643 46.8927 15.75 45.75L15.6 45.6C15.4323 44.4545 15.4304 43.9959 15.9 42.9C17.16 41.85 17.16 41.85 18.3 41.85Z" fill="#F9A42C"/>
<path d="M76.95 7.49999C77.6025 7.98929 77.7876 8.42519 78.15 9.14999C78.1789 9.69119 78.199 10.233 78.2157 10.7748C78.2979 13.1301 78.4264 15.4819 78.5593 17.8348C78.6003 18.5578 78.6406 19.2807 78.6808 20.0035C78.8215 22.5315 78.8215 22.5315 78.9814 25.0581C79.1674 27.8865 79.1674 27.8865 78.6 29.4H78.3V29.7C76.9381 30.5511 76.1319 30.8554 74.55 30.75L73.35 30.15V29.85L72.75 29.55C71.3665 27.3364 72.0426 24.2787 72.219 21.7353C72.2418 21.4006 72.2643 21.0658 72.2875 20.7208C72.3352 20.0184 72.3835 19.3158 72.4321 18.6133C72.5064 17.5392 72.5785 16.4649 72.6504 15.3906L72.7909 13.3353L72.8559 12.3655L72.9195 11.458L72.9741 10.6647C73.0566 9.83369 73.1359 9.05894 73.35 8.24999C74.6557 7.13084 75.3477 7.08374 76.95 7.49999Z" fill="#F9BA35"/>
<path d="M40.95 17.85C41.85 18.45 41.85 18.45 42.45 19.35C43.1484 20.3674 43.1484 20.3674 43.95 21.3L44.25 22.05L44.85 22.35L45.15 22.95L45.6 23.55V23.85H45.9L46.05 24.3L46.5 24.75L46.8 25.5L47.25 25.65L47.4 26.25H47.7L47.85 26.7L48.3 27.15C48.6025 27.5481 48.9025 27.9482 49.2 28.35C49.5183 28.7659 49.8371 29.1816 50.1563 29.5969C52.65 32.8543 52.65 32.8543 52.65 33.45L52.95 33.6C53.0232 34.9762 52.9811 35.8939 52.2 37.05C51.1623 37.8826 50.5431 38.2311 49.2188 38.2875C48.1677 38.2446 47.6342 37.9755 46.8 37.35V37.05H46.5C45.6289 35.5116 44.7789 33.9615 43.95 32.4C43.4811 31.5465 43.0025 30.6988 42.525 29.85L41.85 28.65L41.3906 27.853C41.1 27.3 41.1 27.3 41.1 26.85H40.8C40.05 25.5562 40.05 25.5562 40.05 25.05L39.75 24.9L39.6 24.15H39.3C37.6548 21.1587 37.6548 21.1587 37.5 19.8C37.95 18.75 37.95 18.75 38.7 18C39.573 17.6508 40.032 17.6913 40.95 17.85Z" fill="#F9B633"/>
<path d="M140.25 58.5C141 58.95 141 58.95 141.45 60V60.45L141.75 60.6V61.95C140.363 63.5686 138.453 63.9081 136.473 64.5528C135.872 64.7583 135.284 64.9998 134.7 65.25C133.784 65.5774 132.863 65.8917 131.943 66.2074C131.143 66.4824 130.343 66.7598 129.545 67.0395L128.278 67.4812L127.103 67.8925C123.713 68.9908 123.713 68.9908 121.95 68.55V68.25L121.2 68.1C120.286 67.0332 120.065 66.595 119.85 65.25C119.918 64.2222 120.088 63.6945 120.656 62.8312C121.2 62.25 121.2 62.25 121.8 62.1V61.8C125.798 60.8689 129.826 60.0967 133.86 59.3419C134.632 59.1973 135.402 59.0506 136.172 58.9002C138.882 58.3788 138.882 58.3788 140.25 58.5Z" fill="#F79A24"/>
<path d="M15.4595 59.0907C17.6115 59.5828 17.6115 59.5828 19.8002 59.8501V60.1501L20.522 60.2157L21.4502 60.3001L22.3313 60.3657C23.1002 60.4501 23.1002 60.4501 23.8502 60.7501C24.9801 60.9378 26.1125 61.1056 27.2456 61.2733C28.622 61.5558 29.5146 61.8784 30.4595 62.925C31.146 63.9768 31.1118 64.9168 31.0502 66.15C30.6786 67.3092 30.3788 67.5612 29.4002 68.4C27.6341 68.7925 26.5425 68.6514 24.8438 68.1282L23.7903 67.8064L22.8 67.5001C22.5414 67.4251 22.2827 67.3504 22.0161 67.2733C21.2577 67.0368 20.5356 66.7498 19.8002 66.45C17.3403 65.521 14.8757 64.6395 12.3587 63.8778C11.0237 63.4192 10.2147 63.0477 9.30016 61.95C9.16471 60.8074 9.38806 59.9742 9.90016 58.95C11.7105 58.045 13.5728 58.6662 15.4595 59.0907Z" fill="#F89A26"/>
<path d="M28.35 74.25C29.0462 74.9462 29.5337 75.5511 29.85 76.5C29.9025 77.7848 29.8154 78.5541 29.4 79.8C28.8552 80.3262 28.8552 80.3262 28.2 80.7C27.2029 80.7974 26.2018 80.8475 25.2 80.85L24.3001 80.862C23.3062 80.8724 22.3126 80.8748 21.3187 80.8752L20.2261 80.8767C19.4698 80.8775 18.7134 80.8778 17.9571 80.8778C16.7952 80.8782 15.6333 80.8808 14.4715 80.8838C13.735 80.8842 12.9988 80.8845 12.2625 80.8845L11.2066 80.8878L10.2351 80.8863L9.3783 80.8871C8.7 80.85 8.7 80.85 8.1 80.55V80.25H7.8V79.8H7.5C7.30545 79.0218 7.3065 78.3513 7.35 77.55C7.95 76.35 7.95 76.35 8.5125 75.9843C9.57195 75.669 10.5963 75.6663 11.7 75.6C12.5913 75.5061 13.482 75.4061 14.3719 75.3L15.7248 75.1406C16.707 75.0471 16.707 75.0471 17.25 74.85C17.9431 74.7702 18.637 74.6961 19.3312 74.625C20.7726 74.4831 20.7726 74.4831 22.2 74.25C26.4925 73.8785 26.4925 73.8785 28.35 74.25Z" fill="#F48A22"/>
<path d="M129.3 74.4188C129.581 74.4518 129.862 74.4851 130.151 74.5193C131.068 74.6279 131.984 74.7389 132.9 74.85L134.902 75.0897C135.559 75.1691 136.217 75.2484 136.875 75.3282L137.813 75.4416C141.864 75.9386 141.864 75.9386 142.8 76.5C143.4 77.25 143.4 77.25 143.7 78.15C143.691 78.9 143.691 78.9 143.55 79.65C142.8 80.55 142.8 80.55 141.75 80.85C140.952 80.9639 140.152 81.0639 139.35 81.15L139.2 81C138.388 80.9896 137.575 80.9864 136.763 80.9906L136.005 80.9924C134.931 80.9948 133.858 80.999 132.785 81.0032C124.241 81.0332 124.241 81.0332 122.55 80.55C121.8 79.8 121.8 79.8 121.35 78.45C121.243 77.0667 121.353 76.1787 122.1 75C124.087 73.4102 126.932 74.13 129.3 74.4188Z" fill="#F38922"/>
<path d="M77.85 90.3C80.9691 91.1577 84.2115 92.4652 86.85 94.35C86.6787 96.2888 86.4235 98.2193 86.0853 100.136C85.9661 100.854 85.8804 101.577 85.8 102.3L85.35 103.2H85.05V103.5C82.9325 105.463 80.5508 107.217 77.7 107.85C77.5377 106.003 77.5259 104.169 77.5248 102.318L77.5233 101.332C77.5226 100.648 77.5223 99.964 77.5223 99.28C77.5215 98.2296 77.5195 97.1792 77.5163 96.1288C77.5158 95.4636 77.5155 94.7983 77.5155 94.1332L77.5122 93.1782C77.5155 90.9687 77.5155 90.9687 77.85 90.3Z" fill="#F18020"/>
<path d="M72.6 99.75L72.675 104.644L72.6968 106.052C72.7165 107.345 72.7165 107.345 72.7362 108.639C72.762 110.526 72.762 110.526 72.6 110.85C71.4543 110.85 70.4543 110.754 69.3281 110.578L68.3315 110.425C66.6713 110.129 65.07 109.663 63.45 109.2L62.5031 108.966C60.74 108.52 60.74 108.52 60 108.15V107.85L58.95 107.7C58.1115 107.367 57.4566 107.004 56.7 106.5L56.85 106.05H57.15V105.75C58.9092 104.189 60.9581 102.987 63.15 102.15L63.9 101.794C70.7201 98.8099 70.7201 98.8099 72.6 99.75Z" fill="#ED811D"/>
<path d="M72 70.95L72.75 71.1C72.7575 73.0385 72.7629 74.9769 72.7665 76.9155C72.768 77.5755 72.7701 78.2355 72.7725 78.8955C72.7762 79.842 72.7779 80.7884 72.7792 81.7347L72.784 82.6349C72.784 83.34 72.7686 84.0452 72.75 84.75L72.45 85.05C71.1784 85.05 70.0855 84.7458 68.85 84.45C67.258 84.1691 65.6575 84.012 64.05 83.85V83.4H64.35L64.65 82.8C65.038 82.2414 65.4381 81.6913 65.85 81.15H66.15L66.45 80.55C66.7492 80.1253 67.0524 79.7034 67.3594 79.2843L67.8913 78.5502L69.1218 76.8563C70.2889 75.0795 71.053 73.2674 71.7 71.25L72 70.95Z" fill="#E88F29"/>
<path d="M74.4 61.05V61.35L75.15 61.5L75.6 61.65V61.95L76.2 62.25C76.5753 63.0651 76.8021 63.7623 76.95 64.65H76.65L76.5 65.4C75.8773 66.2058 75.4741 66.588 74.55 67.05C73.2 67.05 73.2 67.05 72.3 66.75V66.45L71.55 66.15L71.4 65.55H71.1C70.7073 64.1754 70.7437 63.6001 71.25 62.25C72.3189 61.3593 73.0045 61.05 74.4 61.05Z" fill="#F1A433"/>
</g>
<defs>
<clipPath id="clip0_3_2">
<rect width="150" height="150" fill="white"/>
</clipPath>
</defs>
</svg>
