<svg id="svg" version="1.1" xmlns="http://www.w3.org/2000/svg" style="display: block;" viewBox="0 0 1000 1000"><path d="M0 0 C330 0 660 0 1000 0 C1000 330 1000 660 1000 1000 C670 1000 340 1000 0 1000 C0 670 0 340 0 0 Z " transform="translate(0,0)" style="fill: #000000;"/><path d="M0 0 C2.03800781 0.82757813 4.07601563 1.65515625 6.17578125 2.5078125 C37.61629223 15.42955657 64.78700686 33.20469113 90 56 C91.32 56.99 92.64 57.98 94 59 C94 59.66 94 60.32 94 61 C95.32 61.33 96.64 61.66 98 62 C98 62.66 98 63.32 98 64 C98.66 64.33 99.32 64.66 100 65 C101.98 67.31 103.96 69.62 106 72 C107.65 73.65 109.3 75.3 111 77 C111 77.66 111 78.32 111 79 C111.66 79 112.32 79 113 79 C113.33 79.99 113.66 80.98 114 82 C115.32 83.32 116.64 84.64 118 86 C119.32 87.32 120.64 88.64 122 90 C122 90.99 122 91.98 122 93 C122.66 93 123.32 93 124 93 C124.33 93.99 124.66 94.98 125 96 C125.99 96.99 126.98 97.98 128 99 C140.37516522 117.68902503 150.91797734 137.06021401 159 158 C159.78375 159.85625 160.5675 161.7125 161.375 163.625 C163 168 163 168 163 173 C156.9898204 176.75636225 151.69605332 179.48898 145 182 C142.36 183.65 139.72 185.3 137 187 C131 190 131 190 125 192 C124.67 192.66 124.34 193.32 124 194 C119.36050604 196.71366628 114.69093409 199.3762572 110 202 C103.54085245 205.28373595 103.54085245 205.28373595 101 208 C99.35 209.32 97.7 210.64 96 212 C95.01 212 94.02 212 93 212 C93 212.66 93 213.32 93 214 C89.535 215.98 89.535 215.98 86 218 C84.35 219.65 82.7 221.3 81 223 C79.02 223.99 79.02 223.99 77 225 C76.67 225.66 76.34 226.32 76 227 C75.01 227.33 74.02 227.66 73 228 C72.67 228.66 72.34 229.32 72 230 C71.34 230 70.68 230 70 230 C70 230.66 70 231.32 70 232 C68.68 233.32 67.36 234.64 66 236 C65.34 236 64.68 236 64 236 C64 236.66 64 237.32 64 238 C61.33623034 240.33664005 58.66899401 242.66932917 56 245 C53.63846136 247.64172119 51.30242279 250.30659976 49 253 C47.35 254.65 45.7 256.3 44 258 C43.34 258 42.68 258 42 258 C41.34 259.65 40.68 261.3 40 263 C38.02878779 265.68801665 36.02483369 268.35214056 34 271 C31.99014245 273.99340486 29.99061528 276.99376468 28 280 C26.824375 281.65 25.64875 283.3 24.4375 285 C21.30147577 289.5614898 18.63363373 294.13790696 16 299 C14.948125 300.711875 13.89625 302.42375 12.8125 304.1875 C9.76191816 309.02873529 9.76191816 309.02873529 8 315 C7.34 315.33 6.68 315.66 6 316 C4.93385647 319.31277061 3.9515999 322.65252801 3 326 C1.5446853 330.67415992 0.06416771 335.34052515 -1.4375 340 C-2.19933594 342.3925 -2.96117187 344.785 -3.74609375 347.25 C-4.48988281 349.1475 -5.23367188 351.045 -6 353 C-7.32 353.66 -8.64 354.32 -10 355 C-18 353 -18 353 -21 350 C-30.04434232 345.09644091 -39.34835825 341.52933169 -49 338 C-52.21097101 336.75679126 -55.41931433 335.5067745 -58.625 334.25 C-63.38070304 332.4045033 -68.16054626 330.61315125 -73 329 C-74 328 -74 328 -75 321 C-75.09710243 314.3466517 -75.13992005 307.70410416 -75.1328125 301.05078125 C-75.13424759 298.11186226 -75.13424759 298.11186226 -75.13571167 295.11357117 C-75.13639206 290.96869881 -75.13454761 286.82382539 -75.13037109 282.67895508 C-75.12503527 276.35430485 -75.13031354 270.0297261 -75.13671875 263.70507812 C-75.13605766 259.67447901 -75.13477587 255.64387994 -75.1328125 251.61328125 C-75.13483673 249.72853592 -75.13686096 247.84379059 -75.13894653 245.90193176 C-75.09514509 221.19029018 -75.09514509 221.19029018 -71 213 C-69.35 211.35 -67.7 209.7 -66 208 C-64.515 205.525 -64.515 205.525 -63 203 C-55.52028872 198.51217323 -47.73428769 199.51836814 -39.234375 199.48828125 C-36.44700897 199.46135445 -36.44700897 199.46135445 -33.60333252 199.43388367 C-27.65224509 199.37964808 -21.70123742 199.34587457 -15.75 199.3125 C-11.75389493 199.27933126 -7.75780059 199.24484203 -3.76171875 199.20898438 C9.49217827 199.09515545 22.74553479 199 36 199 C41.44054308 197.40869659 41.44054308 197.40869659 44 192 C44 189.69 44 187.38 44 185 C35.68534283 181.67413713 27.35648928 178.87659646 18.7578125 176.38671875 C13.86836652 174.96163392 8.99716342 173.4829981 4.125 172 C-11.17439002 167.41842747 -26.24293992 163.7082447 -42 161 C-45.67791797 160.04220886 -49.34737466 159.05012979 -53 158 C-55.97 157.34 -58.94 156.68 -62 156 C-64.77462418 152.41433183 -67.43836533 148.74079983 -70 145 C-76.88327524 138.36255602 -84.85826017 136.35469056 -94 134 C-101.45136356 133.5616845 -108.59447424 134.12876168 -116 135 C-116.99 132.03 -117.98 129.06 -119 126 C-122.86426463 118.54977743 -122.86426463 118.54977743 -128 112 C-128 111.01 -128 110.02 -128 109 C-128.66 109 -129.32 109 -130 109 C-130 108.34 -130 107.68 -130 107 C-130.66 107 -131.32 107 -132 107 C-132 106.34 -132 105.68 -132 105 C-132.66 105 -133.32 105 -134 105 C-134 104.34 -134 103.68 -134 103 C-134.66 103 -135.32 103 -136 103 C-137.98 100.69 -139.96 98.38 -142 96 C-142 95.34 -142 94.68 -142 94 C-142.66 94 -143.32 94 -144 94 C-144 93.34 -144 92.68 -144 92 C-144.66 92 -145.32 92 -146 92 C-146 91.34 -146 90.68 -146 90 C-147.32 89.34 -148.64 88.68 -150 88 C-151.98 86.02 -153.96 84.04 -156 82 C-156 81.34 -156 80.68 -156 80 C-156.66 80 -157.32 80 -158 80 C-158 79.34 -158 78.68 -158 78 C-159.32 77.34 -160.64 76.68 -162 76 C-164.34584169 73.34433016 -166.67783289 70.67639599 -169 68 C-171.31 66.02 -173.62 64.04 -176 62 C-178.31 60.02 -180.62 58.04 -183 56 C-183 55.34 -183 54.68 -183 54 C-183.66 54 -184.32 54 -185 54 C-185 53.34 -185 52.68 -185 52 C-185.66 52 -186.32 52 -187 52 C-189.475 49.525 -189.475 49.525 -192 47 C-197.49152482 42.53774984 -197.49152482 42.53774984 -203 43 C-203.99 43.99 -204.98 44.98 -206 46 C-205.79713095 50.34139759 -205.47055887 54.67941402 -205 59 C-204.34 59.33 -203.68 59.66 -203 60 C-203.33 60.66 -203.66 61.32 -204 62 C-203.34 62 -202.68 62 -202 62 C-201.67 63.65 -201.34 65.3 -201 67 C-200.34 67.33 -199.68 67.66 -199 68 C-198.34 69.98 -197.68 71.96 -197 74 C-196.34 74 -195.68 74 -195 74 C-194.01 77.465 -194.01 77.465 -193 81 C-192.34 81 -191.68 81 -191 81 C-184.125 94.5 -184.125 94.5 -183 99 C-182.34 99 -181.68 99 -181 99 C-181 100.32 -181 101.64 -181 103 C-180.34 103 -179.68 103 -179 103 C-176 109 -176 109 -175 113 C-174.34 113 -173.68 113 -173 113 C-172.401875 114.27875 -171.80375 115.5575 -171.1875 116.875 C-167.53809359 123.88758486 -163.42651618 130.52281169 -159.23046875 137.21875 C-157 141 -157 141 -157 143 C-156.34 143 -155.68 143 -155 143 C-154.01 144.65 -153.02 146.3 -152 148 C-146.98491071 153.1659822 -146.98491071 153.1659822 -141 158 C-141 158.66 -141 159.32 -141 160 C-141.66 160 -142.32 160 -143 160 C-143 161.98 -143 163.96 -143 166 C-143.33 166.66 -143.66 167.32 -144 168 C-144.56649185 181.69021973 -143.46055231 192.06439831 -139 205 C-140.65 206.65 -142.3 208.3 -144 210 C-148.64519009 216.667816 -148.64519009 216.667816 -152 224 C-152.66 224 -153.32 224 -154 224 C-154.66 226.31 -155.32 228.62 -156 231 C-158 235 -160 239 -162 243 C-163.485 247.455 -163.485 247.455 -165 252 C-166.73595031 256.03601634 -168.50986871 260.0558216 -170.3125 264.0625 C-175.6745469 276.14300093 -180.36177226 288.34594393 -184.75 300.8125 C-187 307 -187 307 -189 310 C-197.44851311 310.93872368 -205.51093797 311 -214 311 C-221.11954993 311.39776426 -221.11954993 311.39776426 -228 313 C-230.76375 313.144375 -233.5275 313.28875 -236.375 313.4375 C-244.55810416 313.52340206 -244.55810416 313.52340206 -250 316 C-253.33202321 316.34618423 -256.66549472 316.6786019 -260 317 C-262.64 317.66 -265.28 318.32 -268 319 C-270.124375 319.474375 -272.24875 319.94875 -274.4375 320.4375 C-281.47151367 322.01068154 -281.47151367 322.01068154 -290 325 C-291.835625 325.598125 -293.67125 326.19625 -295.5625 326.8125 C-305.56931812 330.21287509 -315.42633561 333.97940895 -325.25 337.875 C-331 340 -331 340 -335 340 C-335.61875 338.5975 -336.2375 337.195 -336.875 335.75 C-338.19178707 332.8065936 -339.55794803 329.88410394 -341 327 C-346 311.39393939 -346 311.39393939 -346 304 C-346.66 304 -347.32 304 -348 304 C-349.08745902 297.88304303 -350 292.22454391 -350 286 C-350.66 286 -351.32 286 -352 286 C-355.54035786 229.92529974 -355.54035786 229.92529974 -350 203 C-349.5978125 200.96457031 -349.195625 198.92914063 -348.78125 196.83203125 C-343.1661716 170.55034483 -334.141241 145.46650178 -321 122 C-320.34 120.35 -319.68 118.7 -319 117 C-318.34 117 -317.68 117 -317 117 C-316.01 114.03 -316.01 114.03 -315 111 C-312.73275842 107.62136549 -310.39085244 104.29232139 -308 101 C-306.865625 99.35 -305.73125 97.7 -304.5625 96 C-302.04309852 92.46399793 -299.40456207 89.01148316 -296.6875 85.625 C-292.9762256 81.29897665 -292.9762256 81.29897665 -291 77 C-289.35 75.35 -287.7 73.7 -286 72 C-283.33078544 69.00226673 -280.66404098 66.00233189 -278 63 C-276.68 61.68 -275.36 60.36 -274 59 C-273.34 59 -272.68 59 -272 59 C-271.01 57.02 -271.01 57.02 -270 55 C-269.34 55 -268.68 55 -268 55 C-266.35 53.02 -264.7 51.04 -263 49 C-259.69722318 46.6236118 -256.36544375 44.28677588 -253 42 C-252.01 41.01 -251.02 40.02 -250 39 C-239.37313433 31 -239.37313433 31 -237 31 C-237 30.34 -237 29.68 -237 29 C-233.1328125 26.958125 -233.1328125 26.958125 -229.1875 24.875 C-223.95045806 22.10784846 -218.74550586 19.30576538 -213.5625 16.4375 C-209 14 -209 14 -207 14 C-206.67 13.34 -206.34 12.68 -206 12 C-204.35 11.67 -202.7 11.34 -201 11 C-200.67 10.34 -200.34 9.68 -200 9 C-194.6956388 6.9243804 -189.35638533 4.93741597 -184 3 C-181.69 2.154375 -179.38 1.30875 -177 0.4375 C-174.69 -0.366875 -172.38 -1.17125 -170 -2 C-167.73125 -2.804375 -165.4625 -3.60875 -163.125 -4.4375 C-111.4345539 -18.95331021 -50.21693616 -21.29198093 0 0 Z " transform="translate(592,248)" style="fill: #FCA624;"/><path d="M0 0 C1.98 0.495 1.98 0.495 4 1 C5.98 4.465 5.98 4.465 8 8 C9.629375 10.43375 11.25875 12.8675 12.9375 15.375 C23 30.5308642 23 30.5308642 23 34 C23.66 34 24.32 34 25 34 C26.98 37.96 26.98 37.96 29 42 C29.66 42.33 30.32 42.66 31 43 C31.33 44.32 31.66 45.64 32 47 C32.99 48.32 33.98 49.64 35 51 C35.33 51.99 35.66 52.98 36 54 C36.66 54.66 37.32 55.32 38 56 C38.33 57.65 38.66 59.3 39 61 C39.66 61 40.32 61 41 61 C41 61.99 41 62.98 41 64 C41.66 64.33 42.32 64.66 43 65 C43.66 66.32 44.32 67.64 45 69 C45.66 69.66 46.32 70.32 47 71 C47.66 72.98 48.32 74.96 49 77 C49.66 77.66 50.32 78.32 51 79 C53.02018987 82.65558167 55.01546705 86.32493899 57 90 C58.44375 92.495625 59.8875 94.99125 61.375 97.5625 C65 104 65 104 65 106 C65.66 106.33 66.32 106.66 67 107 C73 118.4 73 118.4 73 121 C73.66 121.33 74.32 121.66 75 122 C79 130.35294118 79 130.35294118 79 133 C79.66 133.33 80.32 133.66 81 134 C81.33 134.66 81.66 135.32 82 136 C81.67 136.66 81.34 137.32 81 138 C81.66 138 82.32 138 83 138 C83.33 139.32 83.66 140.64 84 142 C83.34 142 82.68 142 82 142 C82 142.66 82 143.32 82 144 C75.04526943 149.31832338 67.84088985 153.15642655 60 157 C52.27790162 161.23493794 44.64655752 165.63053856 37 170 C32.36015536 171.73994174 27.70106371 173.43297876 23 175 C23 175.66 23 176.32 23 177 C21.35 177 19.7 177 18 177 C17.67 177.66 17.34 178.32 17 179 C10.62087569 181.64185956 4.82237997 183.86293667 -2 185 C-2.33 185.66 -2.66 186.32 -3 187 C-7.97086882 188.75163949 -12.97812893 190.40044107 -18 192 C-20.5575 192.825 -23.115 193.65 -25.75 194.5 C-40.06079543 198.83660468 -54.25762576 202.41361855 -69 205 C-72.17714337 205.63542867 -75.35086954 206.28838788 -78.51953125 206.96484375 C-84.56081588 208.10592745 -90.58001314 208.86019417 -96.6875 209.5625 C-103.14027042 210.3095814 -109.56900716 211.08128674 -116 212 C-119.81195523 212.06773197 -123.62500982 212.08505911 -127.4375 212.0625 C-129.41621094 212.05347656 -131.39492188 212.04445313 -133.43359375 212.03515625 C-135.69396484 212.01775391 -135.69396484 212.01775391 -138 212 C-138 211.34 -138 210.68 -138 210 C-138.66 210 -139.32 210 -140 210 C-139.99476318 207.81375 -139.98952637 205.6275 -139.98413086 203.375 C-139.96261502 192.91666719 -139.94816696 182.45834871 -139.9375 172 C-139.935224 170.09140198 -139.932948 168.18280396 -139.93060303 166.21636963 C-139.91072162 144.34750368 -139.97411945 122.48397633 -140.29296875 100.6171875 C-140.31961105 98.77086731 -140.34625336 96.92454712 -140.373703 95.02227783 C-140.50550277 86.16160786 -140.65365294 77.30149137 -140.82006836 68.44140625 C-140.87238304 65.25000245 -140.9245558 62.05859633 -140.9765625 58.8671875 C-141.02893066 56.08394043 -141.08129883 53.30069336 -141.13525391 50.43310547 C-141 44 -141 44 -139 40 C-133.5201574 37.80806296 -128.7250425 37.17357254 -122.875 36.4375 C-115.83658449 35.67319735 -115.83658449 35.67319735 -109 34 C-107.14375 33.855625 -105.2875 33.71125 -103.375 33.5625 C-97.0462797 33.0040835 -91.0582687 32.0194229 -85 30 C-82.03 29.67 -79.06 29.34 -76 29 C-75.34 28.34 -74.68 27.68 -74 27 C-70.04 26.505 -70.04 26.505 -66 26 C-51.18957542 22.57517102 -37.34487603 17.08974537 -23.36328125 11.1953125 C-18 9 -18 9 -16 9 C-15.67 8.34 -15.34 7.68 -15 7 C-8 4 -8 4 -5 4 C-4.67 3.34 -4.34 2.68 -4 2 C-2.68 1.34 -1.36 0.68 0 0 Z " transform="translate(656,733)" style="fill: #48B7A0;"/><path d="M0 0 C8.37988446 2.79329482 16.01642313 6.2554905 24 10 C24.66 10 25.32 10 26 10 C26 10.66 26 11.32 26 12 C28.97 12.99 31.94 13.98 35 15 C37.97 15.99 40.94 16.98 44 18 C44 18.66 44 19.32 44 20 C45.65 20 47.3 20 49 20 C52.02177518 21.2832196 55.02290479 22.61627969 58 24 C59.32 24.33 60.64 24.66 62 25 C66.4240625 26.2065625 66.4240625 26.2065625 70.9375 27.4375 C78.5952124 29.46248778 86.14926006 30.90258474 94 32 C97.96 32.99 97.96 32.99 102 34 C113.93166422 36.21818238 113.93166422 36.21818238 126 37 C127.65 38.32 129.3 39.64 131 41 C131.52806433 47.336772 131.79125996 53.41102725 131.8125 59.75 C131.83763672 61.49667969 131.86277344 63.24335937 131.88867188 65.04296875 C131.94767142 69.3617356 131.97666494 73.6808932 132 78 C131.34 78 130.68 78 130 78 C130.00523682 79.66417969 130.01047363 81.32835937 130.01586914 83.04296875 C130.10301016 115.32264951 130.05965819 147.59770754 129.625 179.875 C129.5787146 184.01289062 129.5787146 184.01289062 129.53149414 188.234375 C129.4927417 190.77382813 129.45398926 193.31328125 129.4140625 195.9296875 C129.3826416 198.16991699 129.3512207 200.41014648 129.31884766 202.71826172 C129 208 129 208 127 212 C119.51360849 212.83182128 114.62090774 212.79037931 107.359375 211.70703125 C104.2965625 211.25553711 104.2965625 211.25553711 101.171875 210.79492188 C99.05265625 210.47072266 96.9334375 210.14652344 94.75 209.8125 C92.6771875 209.50763672 90.604375 209.20277344 88.46875 208.88867188 C75.24137126 206.91202411 62.1223718 204.58210719 49 202 C49 201.34 49 200.68 49 200 C46.8653125 199.8453125 46.8653125 199.8453125 44.6875 199.6875 C36.16515674 198.65732664 28.883372 196.378588 21 193 C14.88345659 191.16294942 8.73870573 189.44421527 2.58984375 187.71875 C-3 186 -3 186 -9 183 C-11.124375 182.195625 -13.24875 181.39125 -15.4375 180.5625 C-22 178 -22 178 -29 174 C-32.66308851 172.65686755 -36.32960944 171.32304776 -40 170 C-41.65 169.01 -43.3 168.02 -45 167 C-48.99206368 164.98420547 -52.99122833 162.98235962 -57 161 C-57 160.34 -57 159.68 -57 159 C-58.65 158.67 -60.3 158.34 -62 158 C-70.18839856 153.27049393 -78.19562434 148.33983598 -86 143 C-85.04903378 136.34323644 -83.75320587 133.03274019 -80.625 127.25 C-79.28695313 124.76919922 -79.28695313 124.76919922 -77.921875 122.23828125 C-74.06665019 115.32670842 -70.0925996 108.48988049 -66.0546875 101.68359375 C-63.83762125 98.41187315 -63.83762125 98.41187315 -64 96 C-63.01 95.01 -62.02 94.02 -61 93 C-61 92.34 -61 91.68 -61 91 C-59.68 89.68 -58.36 88.36 -57 87 C-54.12124445 82.08505151 -51.54805068 77.09610136 -49 72 C-47.35 69.69 -45.7 67.38 -44 65 C-44 64.34 -44 63.68 -44 63 C-43.01 62.01 -42.02 61.02 -41 60 C-38.30235839 55.87027703 -35.60885929 51.73773236 -32.9453125 47.5859375 C-22.56464488 31.42293512 -12.00948176 15.0118522 0 0 Z " transform="translate(353,733)" style="fill: #48B7A0;"/><path d="M0 0 C2.31 0 4.62 0 7 0 C11.61489877 4.61489877 11.1263429 14.52994511 12 21 C15.1164953 46.4162826 14.45006221 74.17907999 8 99 C7.649375 101.371875 7.29875 103.74375 6.9375 106.1875 C6.628125 108.105625 6.31875 110.02375 6 112 C5.01 112.495 5.01 112.495 4 113 C3.62875 115.041875 3.62875 115.041875 3.25 117.125 C-1.74774397 140.61439665 -16.08473721 161.88970576 -30 181 C-31.32 182.98 -32.64 184.96 -34 187 C-34.66 187 -35.32 187 -36 187 C-36.66 188.32 -37.32 189.64 -38 191 C-40.9792395 194.02061782 -43.97909484 197.02105186 -47 200 C-47.66 200.99 -48.32 201.98 -49 203 C-56 209 -56 209 -60 211 C-60 211.99 -60 212.98 -60 214 C-61.65 214.99 -63.3 215.98 -65 217 C-70.70963552 221.25498152 -70.70963552 221.25498152 -76 226 C-79.66666667 228.33333333 -83.33333333 230.66666667 -87 233 C-87.66 233.66 -88.32 234.32 -89 235 C-97.57142857 240 -97.57142857 240 -100 240 C-100.33 240.66 -100.66 241.32 -101 242 C-104.33333333 243.66666667 -107.66666667 245.33333333 -111 247 C-111.33 247.66 -111.66 248.32 -112 249 C-115.21725754 250.43021722 -118.47503633 251.76987465 -121.75 253.0625 C-123.53921875 253.77535156 -125.3284375 254.48820313 -127.171875 255.22265625 C-132 257 -132 257 -137 258 C-137.33 258.66 -137.66 259.32 -138 260 C-147.84744102 263.28248034 -157.82160998 265.964322 -168 268 C-166.20491023 262.6147307 -160.48616386 260.1776994 -156 257 C-115.87400851 226.34820095 -89.86356345 190.23495887 -68 145 C-66.68 142.2775 -65.36 139.555 -64 136.75 C-59.59813667 127.31988733 -55.75068175 117.70471078 -52 108 C-50.95199219 105.32197266 -50.95199219 105.32197266 -49.8828125 102.58984375 C-44.23340203 87.88328232 -39.34572286 72.97468867 -34.578125 57.9609375 C-32.89796263 52.77279975 -31.14084376 47.60876458 -29.296875 42.4765625 C-26.81839711 35.81578012 -26.81839711 35.81578012 -25 28 C-23.3856292 24.3100096 -21.72810441 20.63811454 -20 17 C-24.67506901 21.67506901 -28.35879508 26.35947988 -32.25 31.6875 C-33.49265625 33.38261719 -34.7353125 35.07773437 -36.015625 36.82421875 C-38.83413331 40.53807934 -38.83413331 40.53807934 -40 43 C-40.66 43 -41.32 43 -42 43 C-42.66 44.65 -43.32 46.3 -44 48 C-45.97779201 51.67869314 -47.97537524 55.34687271 -50 59 C-50.66 59 -51.32 59 -52 59 C-52.66 60.65 -53.32 62.3 -54 64 C-55.65 66.64 -57.3 69.28 -59 72 C-59.66 73.65 -60.32 75.3 -61 77 C-65.54545455 86.31818182 -65.54545455 86.31818182 -68 90 C-68.66 90 -69.32 90 -70 90 C-70.33 91.98 -70.66 93.96 -71 96 C-72.96048715 99.02596929 -74.96254261 102.02531222 -77 105 C-77.99 107.31 -78.98 109.62 -80 112 C-80.99 112.495 -80.99 112.495 -82 113 C-82.66 115.64 -83.32 118.28 -84 121 C-84.66 121 -85.32 121 -86 121 C-86.66 122.98 -87.32 124.96 -88 127 C-92.50636542 136.39462622 -97.27472034 145.29757492 -103 154 C-103.66 155.32 -104.32 156.64 -105 158 C-106.19625 159.85625 -107.3925 161.7125 -108.625 163.625 C-112.17725604 168.22450481 -112.17725604 168.22450481 -112 171 C-112.66 171 -113.32 171 -114 171 C-114 171.99 -114 172.98 -114 174 C-114.99 174.66 -115.98 175.32 -117 176 C-120.14061025 181.08947925 -120.14061025 181.08947925 -123 187 C-123.66 187.66 -124.32 188.32 -125 189 C-126.485 191.475 -126.485 191.475 -128 194 C-129.32 195.65 -130.64 197.3 -132 199 C-132.66 199 -133.32 199 -134 199 C-134.33 200.32 -134.66 201.64 -135 203 C-135.99 203.99 -136.98 204.98 -138 206 C-138.66 206 -139.32 206 -140 206 C-140.33 206.99 -140.66 207.98 -141 209 C-141.33 209.66 -141.66 210.32 -142 211 C-142.66 211 -143.32 211 -144 211 C-144.66 212.65 -145.32 214.3 -146 216 C-147.98 216.99 -147.98 216.99 -150 218 C-150.33 218.99 -150.66 219.98 -151 221 C-151.66 220.67 -152.32 220.34 -153 220 C-152.08602821 199.66412757 -147.48772071 179.79515161 -143 160 C-142.566875 157.958125 -142.13375 155.91625 -141.6875 153.8125 C-133.93703988 127.1164707 -119.87850107 103.87073378 -103 82 C-103 81.34 -103 80.68 -103 80 C-100 77 -97 74 -94 71 C-92.22625 69.06125 -90.4525 67.1225 -88.625 65.125 C-81.15043577 56.98603006 -73.62770994 49.92014235 -65 43 C-63.7934375 42.01128906 -62.586875 41.02257812 -61.34375 40.00390625 C-54.1485819 34.14686393 -46.93607507 28.83907016 -39 24 C-37.618125 23.05125 -36.23625 22.1025 -34.8125 21.125 C-28.06264886 16.74197978 -21.02888533 12.91685977 -14 9 C-11.73125 7.659375 -9.4625 6.31875 -7.125 4.9375 C-2 2 -2 2 0 2 C0 1.34 0 0.68 0 0 Z " transform="translate(759,457)" style="fill: #85C27B;"/><path d="M0 0 C0.66 0 1.32 0 2 0 C2 0.66 2 1.32 2 2 C3.65 2.33 5.3 2.66 7 3 C8.32 4.32 9.64 5.64 11 7 C14.63106761 10.05270463 14.63106761 10.05270463 18 11 C18.99 12.485 18.99 12.485 20 14 C20.99 14.33 21.98 14.66 23 15 C23.99 15.99 23.99 15.99 25 17 C30.16997926 21.9257705 30.16997926 21.9257705 34 23 C34.99 23.99 35.98 24.98 37 26 C43.56059114 31.28628401 43.56059114 31.28628401 51 35 C51 35.66 51 36.32 51 37 C52.98 37.495 52.98 37.495 55 38 C56.32 39.32 57.64 40.64 59 42 C60.485 42.495 60.485 42.495 62 43 C62.33 43.66 62.66 44.32 63 45 C64.32 45.66 65.64 46.32 67 47 C67 47.66 67 48.32 67 49 C68.32 49.66 69.64 50.32 71 51 C74.98204192 52.99102096 77.94035833 54.88071666 80 59 C80.66 59 81.32 59 82 59 C82.99 59.99 83.98 60.98 85 62 C85.99 62.33 86.98 62.66 88 63 C90.475 65.475 90.475 65.475 93 68 C105.84865337 78.9549969 105.84865337 78.9549969 120 88 C120 89.65 120 91.3 120 93 C119.01 93.99 118.02 94.98 117 96 C114.525 99.96 114.525 99.96 112 104 C111.34 104 110.68 104 110 104 C110 104.66 110 105.32 110 106 C109.34 106 108.68 106 108 106 C107.01 107.98 107.01 107.98 106 110 C104.68 111.98 103.36 113.96 102 116 C101.34 116 100.68 116 100 116 C99.34 117.65 98.68 119.3 98 121 C97.34 121 96.68 121 96 121 C95.01 122.98 95.01 122.98 94 125 C90.68096194 129.42538408 86.90779922 133.09220078 83 137 C82.34 137.99 81.68 138.98 81 140 C80.34 140 79.68 140 79 140 C78.67 141.32 78.34 142.64 78 144 C77.01 144 76.02 144 75 144 C74.67 145.32 74.34 146.64 74 148 C73.34 148 72.68 148 72 148 C72 148.66 72 149.32 72 150 C71.34 150 70.68 150 70 150 C70 150.66 70 151.32 70 152 C69.34 152 68.68 152 68 152 C68 152.66 68 153.32 68 154 C67.34 154 66.68 154 66 154 C66 154.66 66 155.32 66 156 C65.34 156 64.68 156 64 156 C63.67 157.32 63.34 158.64 63 160 C60.69 161.98 58.38 163.96 56 166 C54.02 168.31 52.04 170.62 50 173 C48.68 173.33 47.36 173.66 46 174 C46 174.66 46 175.32 46 176 C45.34 176 44.68 176 44 176 C44 176.66 44 177.32 44 178 C43.34 178 42.68 178 42 178 C42 178.66 42 179.32 42 180 C41.34 180 40.68 180 40 180 C40 180.66 40 181.32 40 182 C37.02008156 184.02979952 34.01844566 186.02794884 31 188 C30.01 188.99 29.02 189.98 28 191 C26.68 191.99 25.36 192.98 24 194 C22.02 193.01 22.02 193.01 20 192 C19.505 189.525 19.505 189.525 19 187 C18.34 187 17.68 187 17 187 C3 164.6 3 164.6 3 161 C2.34 161 1.68 161 1 161 C-1 158 -1 158 -1 155 C-1.66 155 -2.32 155 -3 155 C-6 150 -6 150 -8 146 C-8.99 145.01 -8.99 145.01 -10 144 C-13.4200905 138.7144056 -16.7609295 133.39845083 -20 128 C-22.475 124.04 -22.475 124.04 -25 120 C-25 119.34 -25 118.68 -25 118 C-25.66 118 -26.32 118 -27 118 C-27 117.01 -27 116.02 -27 115 C-27.66 115 -28.32 115 -29 115 C-35 105.25 -35 105.25 -35 103 C-35.66 103 -36.32 103 -37 103 C-37.33 102.01 -37.66 101.02 -38 100 C-38.66 99.34 -39.32 98.68 -40 98 C-41.155 96.164375 -42.31 94.32875 -43.5 92.4375 C-46.23773253 87.16861735 -46.23773253 87.16861735 -49 86 C-51.00610832 82.33667175 -53.00559175 78.66971118 -55 75 C-56.32 73.35 -57.64 71.7 -59 70 C-63 63 -63 63 -62 56 C-60.68 55.34 -59.36 54.68 -58 54 C-57.67 53.34 -57.34 52.68 -57 52 C-55.02 51.01 -53.04 50.02 -51 49 C-44.1673722 44.2630501 -44.1673722 44.2630501 -39 38 C-37.35 37.01 -35.7 36.02 -34 35 C-28.83435271 31.01840525 -28.83435271 31.01840525 -24 26 C-23.01 25.01 -22.02 24.02 -21 23 C-20.34 22.01 -19.68 21.02 -19 20 C-15.74993323 16.74993323 -12.4800458 13.51952513 -9.1875 10.3125 C-7.805625 8.889375 -6.42375 7.46625 -5 6 C-5 5.34 -5 4.68 -5 4 C-3.35 2.68 -1.7 1.36 0 0 Z " transform="translate(753,656)" style="fill: #61BB97;"/><path d="M0 0 C5 2 5 2 10 8 C10.495 9.485 10.495 9.485 11 11 C12.32 12.32 13.64 13.64 15 15 C17 17 19 19 21 21 C21 21.99 21 22.98 21 24 C21.99 24 22.98 24 24 24 C24.33 25.32 24.66 26.64 25 28 C25.66 28 26.32 28 27 28 C28.65 29.98 30.3 31.96 32 34 C32 34.66 32 35.32 32 36 C32.99 36 33.98 36 35 36 C35.33 37.32 35.66 38.64 36 40 C37.32 40.66 38.64 41.32 40 42 C41.98 43.65 43.96 45.3 46 47 C46.99 47.33 47.98 47.66 49 48 C49 48.66 49 49.32 49 50 C49.66 50 50.32 50 51 50 C51.99 51.65 52.98 53.3 54 55 C54.99 55.33 55.98 55.66 57 56 C59.475 59.465 59.475 59.465 62 63 C61.34 63 60.68 63 60 63 C59.01 64.98 59.01 64.98 58 67 C56.68 68.65 55.36 70.3 54 72 C53.01 73.65 52.02 75.3 51 77 C50.34 77 49.68 77 49 77 C48.67 78.32 48.34 79.64 48 81 C46.35 82.65 44.7 84.3 43 86 C40.525 89.465 40.525 89.465 38 93 C37.34 93 36.68 93 36 93 C35.67 94.32 35.34 95.64 35 97 C32.67599399 99.67479936 30.34175156 102.34072281 28 105 C26.68 107.31 25.36 109.62 24 112 C23.34 112 22.68 112 22 112 C21.01 113.98 21.01 113.98 20 116 C19.67 116.66 19.34 117.32 19 118 C18.34 118 17.68 118 17 118 C16.34 119.65 15.68 121.3 15 123 C14.01 124.65 13.02 126.3 12 128 C11.34 128 10.68 128 10 128 C9.34 129.65 8.68 131.3 8 133 C7.01 134.65 6.02 136.3 5 138 C4.34 138 3.68 138 3 138 C2.34 140.31 1.68 142.62 1 145 C-0.32 146.32 -1.64 147.64 -3 149 C-3.66 150.32 -4.32 151.64 -5 153 C-5.66 153 -6.32 153 -7 153 C-7.99 155.97 -7.99 155.97 -9 159 C-9.66 159 -10.32 159 -11 159 C-11.66 160.65 -12.32 162.3 -13 164 C-13.99 165.32 -14.98 166.64 -16 168 C-16.66 169.65 -17.32 171.3 -18 173 C-18.99 173.99 -19.98 174.98 -21 176 C-21.66 177.32 -22.32 178.64 -23 180 C-23.99 180.99 -24.98 181.98 -26 183 C-26.66 184.65 -27.32 186.3 -28 188 C-29.32 189.65 -30.64 191.3 -32 193 C-32.66 193 -33.32 193 -34 193 C-34.33 193.99 -34.66 194.98 -35 196 C-36.98 195.01 -36.98 195.01 -39 194 C-39 193.34 -39 192.68 -39 192 C-39.66 191.67 -40.32 191.34 -41 191 C-42.32 189.35 -43.64 187.7 -45 186 C-45.66 185.67 -46.32 185.34 -47 185 C-47 184.34 -47 183.68 -47 183 C-47.99 183 -48.98 183 -50 183 C-52.475 180.525 -52.475 180.525 -55 178 C-55 177.34 -55 176.68 -55 176 C-55.66 176 -56.32 176 -57 176 C-57 175.34 -57 174.68 -57 174 C-57.66 174 -58.32 174 -59 174 C-59 173.34 -59 172.68 -59 172 C-59.66 172 -60.32 172 -61 172 C-62.32 170.68 -63.64 169.36 -65 168 C-65 167.34 -65 166.68 -65 166 C-65.66 166 -66.32 166 -67 166 C-67.33 165.01 -67.66 164.02 -68 163 C-69.32 162.01 -70.64 161.02 -72 160 C-72.33 159.34 -72.66 158.68 -73 158 C-74.32 157.34 -75.64 156.68 -77 156 C-77.33 154.35 -77.66 152.7 -78 151 C-78.66 151 -79.32 151 -80 151 C-81.299375 149.370625 -82.59875 147.74125 -83.9375 146.0625 C-87.30354776 140.93104622 -87.30354776 140.93104622 -91 140 C-91.33 138.35 -91.66 136.7 -92 135 C-92.66 135 -93.32 135 -94 135 C-95.65 133.02 -97.3 131.04 -99 129 C-99.66 128.67 -100.32 128.34 -101 128 C-101.33 126.68 -101.66 125.36 -102 124 C-102.66 124 -103.32 124 -104 124 C-106 122 -106 122 -108 117 C-106.85545891 108.98821236 -105.13725259 107.07129852 -100 101 C-98.22625 98.89625 -96.4525 96.7925 -94.625 94.625 C-92.76875 92.43875 -90.9125 90.2525 -89 88 C-87.576875 86.22625 -86.15375 84.4525 -84.6875 82.625 C-79.91945331 76.90334398 -74.93464832 71.47696246 -69.8203125 66.06640625 C-66.78799539 62.83875583 -63.79508318 59.57409303 -60.81640625 56.296875 C-54.94963302 49.94547241 -48.93002949 43.79725132 -42.8125 37.6875 C-40.77707031 35.64949219 -38.74164063 33.61148438 -36.64453125 31.51171875 C-32.20054354 27.17229546 -27.69392437 23.05865641 -23 19 C-21.02 17.02 -19.04 15.04 -17 13 C-16.34 13 -15.68 13 -15 13 C-15 12.34 -15 11.68 -15 11 C-10 6 -10 6 -3 2 C-2.01 1.34 -1.02 0.68 0 0 Z " transform="translate(260,650)" style="fill: #65BC96;"/><path d="M0 0 C10.85474451 1.20608272 21.61340475 2.53780158 32 6 C36.24451767 7.00266499 40.49569095 7.97722825 44.75 8.9375 C64.61452123 13.5208749 84.2950512 18.78026563 104 24 C107.50520833 24.87630208 111.01041667 25.75260417 114.515625 26.62890625 C121.67708333 28.41927083 128.83854167 30.20963542 136 32 C136 32.66 136 33.32 136 34 C136.66 34 137.32 34 138 34 C141.00767727 43.02303181 133.0757434 58.20719683 130 67 C122.06578947 88.86842105 122.06578947 88.86842105 118 97 C118 97.99 118 98.98 118 100 C117.34 100 116.68 100 116 100 C115.01 102.97 114.02 105.94 113 109 C110.38661928 114.35964521 107.71375805 119.69047339 105 125 C99.69188036 135.35781584 99.69188036 135.35781584 95 146 C93.68 147.32 92.36 148.64 91 150 C90.67 150.66 90.34 151.32 90 152 C89.01 151.67 88.02 151.34 87 151 C86.67 150.34 86.34 149.68 86 149 C84.68 148.67 83.36 148.34 82 148 C82 147.34 82 146.68 82 146 C81.34 146 80.68 146 80 146 C80 145.34 80 144.68 80 144 C79.34 144 78.68 144 78 144 C78 143.34 78 142.68 78 142 C76.35 141.34 74.7 140.68 73 140 C69 138 69 138 67 136 C65.515 135.01 65.515 135.01 64 134 C62.35 132.68 60.7 131.36 59 130 C57.35 129.01 55.7 128.02 54 127 C54 126.34 54 125.68 54 125 C50.23570226 123 50.23570226 123 47 122 C47 121.34 47 120.68 47 120 C45.35 119.34 43.7 118.68 42 118 C37 115 37 115 32 111 C25.87005188 106.31090113 25.87005188 106.31090113 19 103 C17.68 101.68 16.36 100.36 15 99 C8.76540428 94.95980359 8.76540428 94.95980359 2 92 C2 91.34 2 90.68 2 90 C1.01 90 0.02 90 -1 90 C-1 89.34 -1 88.68 -1 88 C-2.65 87.34 -4.3 86.68 -6 86 C-8.64 84.35 -11.28 82.7 -14 81 C-15.485 80.505 -15.485 80.505 -17 80 C-17.99 79.01 -18.98 78.02 -20 77 C-20.99 76.67 -21.98 76.34 -23 76 C-23 75.34 -23 74.68 -23 74 C-24.65 73.67 -26.3 73.34 -28 73 C-28.33 72.34 -28.66 71.68 -29 71 C-29.99 70.67 -30.98 70.34 -32 70 C-31 65 -31 65 -27 60 C-18.87104497 43.63706468 -11.70954182 26.92086766 -5.3125 9.8125 C-3 4 -3 4 0 0 Z " transform="translate(802,567)" style="fill: #77C08E;"/><path d="M0 0 C0.495 0.99 0.495 0.99 1 2 C9.21881227 1.29015544 9.21881227 1.29015544 14 0 C20.00938524 0.25135409 25.99822228 0.56355023 32 0.9375 C42.99278477 1.68851608 42.99278477 1.68851608 54 2 C54 2.66 54 3.32 54 4 C62.99176786 4.70485947 62.99176786 4.70485947 72 5 C71.67 5.66 71.34 6.32 71 7 C73.97 7.33 76.94 7.66 80 8 C79.98259766 11.95419922 79.98259766 11.95419922 79.96484375 15.98828125 C79.95546662 19.42968679 79.94636634 22.8710931 79.9375 26.3125 C79.92912109 28.05208984 79.92074219 29.79167969 79.91210938 31.58398438 C79.56410147 39.90612143 79.56410147 39.90612143 81 48 C80.34 49.65 79.68 51.3 79 53 C72.2500125 54.90140493 65.89806933 55.08638071 58.875 55.375 C49.49441841 55.76305906 41.08735257 57.70907078 32 60 C31.34 59.67 30.68 59.34 30 59 C30 59.66 30 60.32 30 61 C27.03 61.66 24.06 62.32 21 63 C10.39504445 66.19817156 10.39504445 66.19817156 0 70 C-0.66 70 -1.32 70 -2 70 C-2 70.66 -2 71.32 -2 72 C-4.64 72.99 -7.28 73.98 -10 75 C-12.31 75.99 -14.62 76.98 -17 78 C-17.33 78.66 -17.66 79.32 -18 80 C-19.98 80.66 -21.96 81.32 -24 82 C-25.32 83.32 -26.64 84.64 -28 86 C-30.99001445 87.68451518 -33.99032738 89.35086432 -37 91 C-38.65 92.32 -40.3 93.64 -42 95 C-42.66 95 -43.32 95 -44 95 C-44 95.66 -44 96.32 -44 97 C-46.6295531 99.37508022 -49.2981389 101.7075118 -52 104 C-52.66 104.66 -53.32 105.32 -54 106 C-59 105 -59 105 -65 101 C-65 100.34 -65 99.68 -65 99 C-66.65 98.34 -68.3 97.68 -70 97 C-71.32 95.35 -72.64 93.7 -74 92 C-76.31 90.35 -78.62 88.7 -81 87 C-82.32 85.35 -83.64 83.7 -85 82 C-87.31 80.02 -89.62 78.04 -92 76 C-93.98 73.69 -95.96 71.38 -98 69 C-98.66 68.67 -99.32 68.34 -100 68 C-100.66 66.68 -101.32 65.36 -102 64 C-102.66 64 -103.32 64 -104 64 C-105.32 62.35 -106.64 60.7 -108 59 C-108 58.34 -108 57.68 -108 57 C-108.99 56.67 -109.98 56.34 -111 56 C-111 55.01 -111 54.02 -111 53 C-111.66 53 -112.32 53 -113 53 C-117 47 -117 47 -117 45 C-117.66 45 -118.32 45 -119 45 C-117 41 -117 41 -115 39 C-113.02 38.34 -111.04 37.68 -109 37 C-108.67 36.34 -108.34 35.68 -108 35 C-103.02791068 32.60776835 -98.02179796 30.28604236 -93 28 C-90.256875 26.700625 -87.51375 25.40125 -84.6875 24.0625 C-78 21 -78 21 -76 21 C-75.67 20.34 -75.34 19.68 -75 19 C-71.68372093 17.94482029 -68.3448555 16.96075637 -65 16 C-61.535 14.824375 -61.535 14.824375 -58 13.625 C-39.23540047 7.46786578 -20.87615747 2.66281519 -1 3 C-0.67 2.01 -0.34 1.02 0 0 Z " transform="translate(405,586)" style="fill: #F6871D;"/><path d="M0 0 C0.66 0 1.32 0 2 0 C2.495 1.7325 2.99 3.465 3.5 5.25 C6.03856111 13.11953945 9.02772703 20.66869324 12.1953125 28.30078125 C14 33 14 33 16 41 C7.86075387 46.08702883 -0.34917999 50.98244158 -8.75 55.625 C-12.91065541 57.95007214 -16.95823922 60.47389951 -21 63 C-25.68093718 65.82996541 -30.36412898 68.65607103 -35.05078125 71.4765625 C-39.04353479 73.82841442 -39.04353479 73.82841442 -42 77 C-43.32 77.33 -44.64 77.66 -46 78 C-46 78.66 -46 79.32 -46 80 C-47.98 80.99 -47.98 80.99 -50 82 C-50.66 82.66 -51.32 83.32 -52 84 C-56.33224068 87.40897627 -59.85531336 89.94212534 -65 92 C-65 92.66 -65 93.32 -65 94 C-65.66 94 -66.32 94 -67 94 C-67.33 94.66 -67.66 95.32 -68 96 C-71.63949195 99.03290996 -75.30058966 102.04047173 -79 105 C-79.99 105.99 -80.98 106.98 -82 108 C-84.94110446 110.94110446 -87.69226946 113.35381557 -91 116 C-91.33 116.66 -91.66 117.32 -92 118 C-92.66 118 -93.32 118 -94 118 C-94 118.66 -94 119.32 -94 120 C-94.99 120 -95.98 120 -97 120 C-97.495 121.485 -97.495 121.485 -98 123 C-99.32 124.65 -100.64 126.3 -102 128 C-102.99 128 -103.98 128 -105 128 C-105 128.66 -105 129.32 -105 130 C-105.99 130 -106.98 130 -108 130 C-108.33 130.99 -108.66 131.98 -109 133 C-112.90342368 131.04828816 -114.20631661 125.75819376 -116 122 C-120 113.45945946 -120 113.45945946 -120 110 C-120.66 110 -121.32 110 -122 110 C-123.485 105.545 -123.485 105.545 -125 101 C-125.99 98.69 -126.98 96.38 -128 94 C-128 93.01 -128 92.02 -128 91 C-128.66 91 -129.32 91 -130 91 C-130.37125 89.68 -130.7425 88.36 -131.125 87 C-132.53411314 82.49083794 -134.12914851 78.03912167 -135.8125 73.625 C-145 48.76470588 -145 48.76470588 -145 37 C-132.10545625 30.55272812 -117.20934925 27.77616866 -103 26 C-103 25.34 -103 24.68 -103 24 C-99.04 23.505 -99.04 23.505 -95 23 C-91.05108431 22.02425834 -87.11392841 21.00012266 -83.1875 19.9375 C-72.31529412 17 -72.31529412 17 -69 17 C-68.67 16.34 -68.34 15.68 -68 15 C-65.36 14.67 -62.72 14.34 -60 14 C-53.67480513 12.56156004 -47.36715002 11.08562717 -41.0625 9.5625 C-13.70319905 3 -13.70319905 3 -7 3 C-6.67 2.34 -6.34 1.68 -6 1 C-4.02 1.33 -2.04 1.66 0 2 C0 1.34 0 0.68 0 0 Z " transform="translate(214,564)" style="fill: #81C38C;"/><path d="M0 0 C5.7461427 1.9153809 8.84592671 4.39426174 13.0625 8.6875 C15.42782 13.41814 14.2822747 19.58872703 14.0625 24.6875 C12.7425 26.6675 11.4225 28.6475 10.0625 30.6875 C9.4025 30.6875 8.7425 30.6875 8.0625 30.6875 C8.0625 31.3475 8.0625 32.0075 8.0625 32.6875 C7.4025 32.6875 6.7425 32.6875 6.0625 32.6875 C5.4025 34.0075 4.7425 35.3275 4.0625 36.6875 C2.0825 38.9975 0.1025 41.3075 -1.9375 43.6875 C-2.5975 43.6875 -3.2575 43.6875 -3.9375 43.6875 C-3.9375 44.3475 -3.9375 45.0075 -3.9375 45.6875 C-4.5975 45.6875 -5.2575 45.6875 -5.9375 45.6875 C-6.5975 47.0075 -7.2575 48.3275 -7.9375 49.6875 C-10.23992279 52.38090024 -12.57596136 55.04577881 -14.9375 57.6875 C-16.5875 59.6675 -18.2375 61.6475 -19.9375 63.6875 C-20.5975 63.6875 -21.2575 63.6875 -21.9375 63.6875 C-22.5975 65.3375 -23.2575 66.9875 -23.9375 68.6875 C-26.2475 70.6675 -28.5575 72.6475 -30.9375 74.6875 C-31.2675 75.3475 -31.5975 76.0075 -31.9375 76.6875 C-32.5975 76.6875 -33.2575 76.6875 -33.9375 76.6875 C-34.9275 78.6675 -34.9275 78.6675 -35.9375 80.6875 C-36.5975 80.6875 -37.2575 80.6875 -37.9375 80.6875 C-38.4325 82.6675 -38.4325 82.6675 -38.9375 84.6875 C-39.9275 85.6775 -40.9175 86.6675 -41.9375 87.6875 C-42.5975 87.6875 -43.2575 87.6875 -43.9375 87.6875 C-43.9375 88.3475 -43.9375 89.0075 -43.9375 89.6875 C-44.5975 89.6875 -45.2575 89.6875 -45.9375 89.6875 C-45.9375 90.3475 -45.9375 91.0075 -45.9375 91.6875 C-46.5975 91.6875 -47.2575 91.6875 -47.9375 91.6875 C-48.5975 93.3375 -49.2575 94.9875 -49.9375 96.6875 C-50.5975 96.6875 -51.2575 96.6875 -51.9375 96.6875 C-52.5975 98.0075 -53.2575 99.3275 -53.9375 100.6875 C-68.1380988 116.56773952 -68.1380988 116.56773952 -75.9375 119.6875 C-84.53414707 120.05176471 -89.96379653 120.10480149 -97.9375 116.6875 C-103.11678199 111.50821801 -105.58463018 107.39323965 -108.9375 100.6875 C-109.68769238 92.62293189 -108.81664468 86.81430068 -104.9375 79.6875 C-98.70977333 73.45977333 -92.05081667 67.88135027 -84.9375 62.6875 C-84.2775 62.6875 -83.6175 62.6875 -82.9375 62.6875 C-82.9375 62.0275 -82.9375 61.3675 -82.9375 60.6875 C-81.4525 60.1925 -81.4525 60.1925 -79.9375 59.6875 C-78.6175 58.3675 -77.2975 57.0475 -75.9375 55.6875 C-75.2775 55.6875 -74.6175 55.6875 -73.9375 55.6875 C-73.2775 54.3675 -72.6175 53.0475 -71.9375 51.6875 C-65.9375 47.6875 -65.9375 47.6875 -63.9375 47.6875 C-63.2775 46.3675 -62.6175 45.0475 -61.9375 43.6875 C-60.9475 43.3575 -59.9575 43.0275 -58.9375 42.6875 C-58.2775 41.6975 -57.6175 40.7075 -56.9375 39.6875 C-55.2875 38.6975 -53.6375 37.7075 -51.9375 36.6875 C-47.59100534 33.03644448 -43.25866836 29.36849527 -38.9375 25.6875 C-37.2875 24.40875 -35.6375 23.13 -33.9375 21.8125 C-29.60701495 18.56016712 -29.60701495 18.56016712 -24.9375 13.6875 C-7.13289731 -0.4514492 -7.13289731 -0.4514492 0 0 Z " transform="translate(830.9375,191.3125)" style="fill: #F6AD2C;"/><path d="M0 0 C5.77118709 8.07966193 6.39120119 10.39236388 6 20 C5.21214732 24.54089634 4.29787066 29.06033429 3.3125 33.5625 C2.68214844 36.44871094 2.05179688 39.33492187 1.40234375 42.30859375 C-2.1094087 58.01134056 -5.68949967 73.69889698 -9.29174805 89.38110352 C-10.0947937 92.87788696 -10.0947937 92.87788696 -10.9140625 96.4453125 C-11.43645508 98.71825195 -11.95884766 100.99119141 -12.49707031 103.33300781 C-14.33693327 111.49463511 -16.05848467 119.67883245 -17.73974609 127.87451172 C-19.26766595 134.08860498 -21.12859731 140.25719462 -24 146 C-24.99 146 -25.98 146 -27 146 C-27 146.66 -27 147.32 -27 148 C-33 151 -33 151 -42 153 C-50.95258332 150.973 -54.89553977 149.08953734 -62 143 C-66.0238736 134.95225279 -66.72265516 132.58153001 -66 124 C-62.75279184 110.0490316 -58.0939034 96.67149095 -52.8125 83.375 C-44.07551007 61.25091972 -36.82581309 38.58459664 -29.4453125 15.98046875 C-24.84323859 2.84323859 -24.84323859 2.84323859 -20 -2 C-9.62805766 -4.30487608 -9.37201406 -4.01657746 0 0 Z " transform="translate(640,68)" style="fill: #F9B833;"/><path d="M0 0 C8 4 8 4 11 8.75 C13 14 13 14 13 22 C12.01 23.98 11.02 25.96 10 28 C9.01 28.33 8.02 28.66 7 29 C7 29.66 7 30.32 7 31 C4.40528987 33.09250817 1.73466056 35.09402446 -1 37 C-1.66 37 -2.32 37 -3 37 C-3.33 37.99 -3.66 38.98 -4 40 C-7.65136327 42.3572092 -11.32089166 44.68633393 -15 47 C-18.35368462 49.64102664 -21.68696376 52.30815805 -25 55 C-28.66132244 57.67399954 -32.32786537 60.34086803 -36 63 C-37.423125 64.11375 -38.84625 65.2275 -40.3125 66.375 C-46.41658891 71.09549542 -52.71367746 75.52595063 -59 80 C-60.5675 81.19625 -62.135 82.3925 -63.75 83.625 C-67 86 -67 86 -69 86 C-69 86.66 -69 87.32 -69 88 C-89.7927134 100.69643562 -89.7927134 100.69643562 -104 100 C-109 98 -109 98 -115 94 C-115.33 92.68 -115.66 91.36 -116 90 C-116.66 90 -117.32 90 -118 90 C-121.12489989 81.66693361 -122 78.83035035 -122 70 C-117.91533142 60.46910666 -113.71840323 55.51910769 -104.625 50.4375 C-99 48 -99 48 -97 48 C-97 47.34 -97 46.68 -97 46 C-73 34 -73 34 -71 34 C-70.505 33.01 -70.505 33.01 -70 32 C-66.43180599 30.1809207 -62.85743309 28.37343181 -59.26171875 26.609375 C-45.42241875 19.7462329 -31.72981728 12.56642774 -18.125 5.25 C-11.11507089 1.53044578 -7.98559503 0 0 0 Z " transform="translate(890,279)" style="fill: #F5A428;"/><path d="M0 0 C5.57129885 4.05908916 7.88137563 6.76275126 11 13 C11 22.86744457 8.12178436 26.62519043 3 35 C-3.58647715 45.70080819 -3.58647715 45.70080819 -9 57 C-9.66 57 -10.32 57 -11 57 C-11.99 59.97 -11.99 59.97 -13 63 C-15.42619387 67.36321308 -17.91293333 71.6929583 -20.4375 76 C-25.92898498 85.38613447 -25.92898498 85.38613447 -31 95 C-31.825 96.36125 -32.65 97.7225 -33.5 99.125 C-37.68554005 106.15072794 -41.59487758 113.3101145 -45.51171875 120.48828125 C-49.73153203 128.13959104 -51.0903024 130.056439 -59 135 C-66.66736647 136.91684162 -73.55165728 136.48278091 -81 134 C-81 133.34 -81 132.68 -81 132 C-82.65 131.34 -84.3 130.68 -86 130 C-91 124 -91 124 -94 115 C-94 105.57485641 -92.59279687 101.97240212 -88 94 C-86.35 92.35 -84.7 90.7 -83 89 C-76.99382565 81.84191505 -76.99382565 81.84191505 -72 74 C-71.34 74 -70.68 74 -70 74 C-69.34 72.35 -68.68 70.7 -68 69 C-65.02425119 65.31362461 -62.02131622 61.64912219 -59 58 C-54.67625024 52.20520034 -54.67625024 52.20520034 -51 46 C-50.34 46 -49.68 46 -49 46 C-48.34 44.68 -47.68 43.36 -47 42 C-44.36046548 38.31375352 -41.68945974 34.64998108 -39 31 C-37.700625 29.205625 -36.40125 27.41125 -35.0625 25.5625 C-20.50310559 5.62732919 -20.50310559 5.62732919 -13 0 C-9 -1 -9 -1 0 0 Z " transform="translate(749,119)" style="fill: #F7B32F;"/><path d="M0 0 C6.68579691 3.82045538 12.10230674 8.08525562 18 13 C18.99 13.66 19.98 14.32 21 15 C21 15.66 21 16.32 21 17 C22.32 17.66 23.64 18.32 25 19 C28.68711545 21.97483178 32.35372457 24.97524879 36 28 C37.32 28.99 38.64 29.98 40 31 C40 31.66 40 32.32 40 33 C41.65 33.66 43.3 34.32 45 35 C47.35544873 37.31100631 49.6863562 39.6471419 52 42 C56.89707627 45.82584084 61.94081366 49.38629547 67 53 C67 53.66 67 54.32 67 55 C68.32 55.66 69.64 56.32 71 57 C72.98 58.32 74.96 59.64 77 61 C77 61.66 77 62.32 77 63 C78.98 63.99 78.98 63.99 81 65 C82.98 65.99 82.98 65.99 85 67 C85 67.66 85 68.32 85 69 C86.98 69.99 86.98 69.99 89 71 C96.20333915 76.14524225 98.05207551 77.96020593 101 86 C101.56809897 94.7345216 101.46527276 99.91436357 98 108 C93.17732296 112.82267704 88.62157492 116.79280836 82 119 C74.97098182 119.2540609 69.93044649 118.73261162 63 117 C58 113 58 113 54 109 C54 108.34 54 107.68 54 107 C53.34 107 52.68 107 52 107 C50.68 105.02 49.36 103.04 48 101 C47.34 100.67 46.68 100.34 46 100 C46 99.01 46 98.02 46 97 C45.34 97 44.68 97 44 97 C41 93 41 93 41 91 C40.34 91 39.68 91 39 91 C39 90.34 39 89.68 39 89 C37.68 88.34 36.36 87.68 35 87 C34.67 85.68 34.34 84.36 34 83 C33.34 83 32.68 83 32 83 C30.02 80.69 28.04 78.38 26 76 C26 75.34 26 74.68 26 74 C25.34 74 24.68 74 24 74 C23.34 72.35 22.68 70.7 22 69 C21.34 69 20.68 69 20 69 C17 65 17 65 17 63 C16.34 63 15.68 63 15 63 C15 62.34 15 61.68 15 61 C13.68 60.34 12.36 59.68 11 59 C10.01 58.01 9.02 57.02 8 56 C8 55.01 8 54.02 8 53 C7.34 53 6.68 53 6 53 C2.39176015 49.13402873 -0.62853568 45.74292864 -3 41 C-4.32 40.34 -5.64 39.68 -7 39 C-8.65 37.35 -10.3 35.7 -12 34 C-12 33.01 -12 32.02 -12 31 C-12.66 31 -13.32 31 -14 31 C-14 30.34 -14 29.68 -14 29 C-14.99 28.67 -15.98 28.34 -17 28 C-20.16824486 22.0255954 -21 18.92560656 -21 12 C-18 6 -18 6 -12 1 C-8 0 -8 0 0 0 Z " transform="translate(184,192)" style="fill: #F7AE30;"/><path d="M0 0 C1.65 0.66 3.3 1.32 5 2 C5 2.66 5 3.32 5 4 C5.66 4 6.32 4 7 4 C11.57300323 14.34006841 14.91772136 24.90491247 18.25 35.6875 C22.44159405 49.08541017 26.81696744 62.35524644 31.66796875 75.53125 C34.69168707 83.91864956 37.54470087 92.35816649 40.375 100.8125 C40.88748291 102.33270752 41.39996582 103.85291504 41.92797852 105.41918945 C49.2797852 127.48193323 49.2797852 127.48193323 48 139 C43.64279247 146.62511318 40.83909309 150.08045346 33 154 C24.08342595 155.9814609 21.23660908 155.9416461 13 153 C6.60999212 147.88799369 4.3169679 144.25613204 2.3125 136.3125 C1.879375 134.229375 1.44625 132.14625 1 130 C0.67 129.01 0.34 128.02 0 127 C-1.04102501 122.08756896 -2.05700477 117.16982633 -3.0625 112.25 C-3.69027344 109.1871875 -4.31804687 106.124375 -4.96484375 102.96875 C-6.335471 96.26111416 -7.70158409 89.55256909 -9.06640625 82.84375 C-13.32674397 61.88448332 -13.32674397 61.88448332 -17.9375 41 C-20.4512194 30.03104262 -21.44300808 20.25240523 -21 9 C-15.0478881 0.07183215 -10.22681499 -0.58774799 0 0 Z " transform="translate(386,65)" style="fill: #FBBA36;"/><path d="M0 0 C4.07421875 1.8359375 4.07421875 1.8359375 8.6875 4.375 C10.37359375 5.29152344 12.0596875 6.20804687 13.796875 7.15234375 C15.51390625 8.09207031 17.2309375 9.03179687 19 10 C22.14294834 11.65133597 25.28872828 13.29729533 28.4375 14.9375 C35.06632615 18.42146226 41.63777865 21.99461164 48.1875 25.625 C56.68486403 30.31659481 65.29050778 34.71123489 74 39 C78.14758705 41.05897109 82.29330875 43.12170254 86.4375 45.1875 C88.41621094 46.17105469 90.39492187 47.15460938 92.43359375 48.16796875 C97.35699678 50.67285801 102.19256637 53.28059339 107 56 C107 56.66 107 57.32 107 58 C107.66 58 108.32 58 109 58 C113.30443796 63.9186022 114.9642106 67.63559888 115.6875 75 C114.98698814 82.13248435 113.94892707 86.07660939 110 92 C104.02658686 97.29899552 98.17693813 100.71849915 90.0625 101.4375 C80.8601504 100.64223522 74.2979831 95.18772292 67 90 C65.185 88.865625 63.37 87.73125 61.5 86.5625 C56.01914107 83.0123982 51.05652257 79.12505789 46 75 C43.69 73.35 41.38 71.7 39 70 C39 69.34 39 68.68 39 68 C37.35 67.34 35.7 66.68 34 66 C31.23325009 64.1165585 28.50923116 62.16989704 25.8125 60.1875 C24.21921875 59.02089844 22.6259375 57.85429687 20.984375 56.65234375 C19.33953125 55.44707031 17.6946875 54.24179687 16 53 C12.85500955 50.74882199 9.70920461 48.49878133 6.5625 46.25 C-10.90551181 33.61811024 -10.90551181 33.61811024 -17 26 C-17.33 25.67 -17.66 25.34 -18 25 C-19.11754893 17.36341561 -19.13106316 14.30581404 -16 7 C-7.6 0 -7.6 0 0 0 Z " transform="translate(122,279)" style="fill: #F9A42C;"/><path d="M0 0 C4.34979735 3.26234801 5.58411219 6.16822438 8 11 C8.19334038 14.60844507 8.32669012 18.22010967 8.4375 21.83203125 C8.98645199 37.53398795 9.84313453 53.21305676 10.72949219 68.89916992 C11.00174879 73.71845585 11.27067526 78.53791905 11.5390625 83.35742188 C12.47732342 100.20957127 12.47732342 100.20957127 13.54296875 117.05395508 C14.78366175 135.91023533 14.78366175 135.91023533 11 146 C10.34 146 9.68 146 9 146 C9 146.66 9 147.32 9 148 C-0.07902831 153.67439269 -5.45404126 155.70306392 -16 155 C-18.64 153.68 -21.28 152.36 -24 151 C-24 150.34 -24 149.68 -24 149 C-25.32 148.34 -26.64 147.68 -28 147 C-37.22325274 132.24279561 -32.71615466 111.85837211 -31.5390625 94.90234375 C-31.38843353 92.67053848 -31.23780457 90.43873322 -31.08261108 88.13929749 C-30.76476097 83.45567652 -30.44355526 78.77228218 -30.11914062 74.08911133 C-29.624335 66.92787563 -29.14349233 59.76579534 -28.6640625 52.60351562 C-28.35239476 48.03640146 -28.0399228 43.46934209 -27.7265625 38.90234375 C-27.58376862 36.76885971 -27.44097473 34.63537567 -27.29385376 32.4372406 C-27.15385956 30.44048782 -27.01386536 28.44373505 -26.86962891 26.38647461 C-26.74971588 24.6414415 -26.62980286 22.89640839 -26.5062561 21.09849548 C-25.95609502 15.55783376 -25.42728979 10.39262224 -24 5 C-15.29545009 -2.46104278 -10.68202071 -2.77455083 0 0 Z " transform="translate(513,50)" style="fill: #F9BA35;"/><path d="M0 0 C6 4 6 4 10 10 C14.65606132 16.78274119 14.65606132 16.78274119 20 23 C20.66 24.65 21.32 26.3 22 28 C23.32 28.66 24.64 29.32 26 30 C26.66 31.32 27.32 32.64 28 34 C28.99 35.32 29.98 36.64 31 38 C31 38.66 31 39.32 31 40 C31.66 40 32.32 40 33 40 C33.33 40.99 33.66 41.98 34 43 C34.99 43.99 35.98 44.98 37 46 C37.66 47.65 38.32 49.3 39 51 C39.99 51.33 40.98 51.66 42 52 C42.495 53.98 42.495 53.98 43 56 C43.66 56 44.32 56 45 56 C45.33 56.99 45.66 57.98 46 59 C46.99 59.99 47.98 60.98 49 62 C51.01758899 64.65338384 53.01509978 67.32207501 55 70 C57.12240602 72.77282077 59.24746451 75.54361302 61.375 78.3125 C78 100.0295 78 100.0295 78 104 C78.66 104.33 79.32 104.66 80 105 C80.4880317 114.17499589 80.2074364 120.29299412 75 128 C68.08215648 133.55135591 63.95388667 135.8743027 55.125 136.25 C48.11756038 135.96398206 44.56097083 134.17072812 39 130 C39 129.34 39 128.68 39 128 C38.34 128 37.68 128 37 128 C31.18787988 117.73797541 25.53126329 107.41721252 20 97 C16.87438934 91.30978572 13.68292366 85.65853095 10.5 80 C9.015 77.36 7.53 74.72 6 72 C4.989375 70.246875 3.97875 68.49375 2.9375 66.6875 C1 63 1 63 1 60 C0.34 60 -0.32 60 -1 60 C-6 51.375 -6 51.375 -6 48 C-6.66 47.67 -7.32 47.34 -8 47 C-8.33 45.35 -8.66 43.7 -9 42 C-9.66 42 -10.32 42 -11 42 C-21.96806967 22.05805515 -21.96806967 22.05805515 -23 13 C-20 6 -20 6 -15 1 C-9.17972378 -1.32811049 -6.12009347 -1.05779393 0 0 Z " transform="translate(273,119)" style="fill: #F9B633;"/><path d="M0 0 C5 3 5 3 8 10 C8 10.99 8 11.98 8 13 C8.99 13.495 8.99 13.495 10 14 C10 16.97 10 19.94 10 23 C0.75033406 33.79127693 -11.97729706 36.05446635 -25.1796875 40.3515625 C-29.18574081 41.72154183 -33.10849728 43.33221312 -37 45 C-43.10896792 47.18339881 -49.2464818 49.27754719 -55.3828125 51.3828125 C-60.71657686 53.21543923 -66.04422932 55.06590662 -71.3671875 56.9296875 C-74.15414062 57.90164063 -76.94109375 58.87359375 -79.8125 59.875 C-82.39707031 60.77992188 -84.98164062 61.68484375 -87.64453125 62.6171875 C-110.24520009 69.93869998 -110.24520009 69.93869998 -122 67 C-122 66.34 -122 65.68 -122 65 C-123.65 64.67 -125.3 64.34 -127 64 C-133.09583064 56.88819759 -134.56526206 53.9671121 -136 45 C-135.54820619 38.14779392 -134.41494501 34.63010168 -130.625 28.875 C-127 25 -127 25 -123 24 C-123 23.34 -123 22.68 -123 22 C-96.34742071 15.79323496 -69.4926125 10.64475659 -42.59765625 5.61328125 C-37.45640562 4.6485668 -32.31746611 3.67120684 -27.18359375 2.66796875 C-9.11685016 -0.80782217 -9.11685016 -0.80782217 0 0 Z " transform="translate(935,390)" style="fill: #F79A24;"/><path d="M0 0 C14.3474198 3.28108497 14.3474198 3.28108497 28.9375 5.0625 C28.9375 5.7225 28.9375 6.3825 28.9375 7.0625 C30.525625 7.206875 32.11375 7.35125 33.75 7.5 C35.791875 7.685625 37.83375 7.87125 39.9375 8.0625 C41.87625 8.206875 43.815 8.35125 45.8125 8.5 C50.9375 9.0625 50.9375 9.0625 55.9375 11.0625 C63.47097845 12.31441916 71.01968888 13.43337904 78.57421875 14.55078125 C87.74910217 16.43443106 93.7007013 18.58481529 100 25.5625 C104.57713847 32.5742866 104.34859684 38.8405633 103.9375 47.0625 C101.46073375 54.79001071 99.46215007 56.4699428 92.9375 62.0625 C81.16439117 64.67874641 73.88651856 63.73769717 62.5625 60.25 C60.24476563 59.54230469 57.92703125 58.83460938 55.5390625 58.10546875 C53.36054688 57.43128906 51.18203125 56.75710938 48.9375 56.0625 C47.21273437 55.56363281 45.48796875 55.06476563 43.7109375 54.55078125 C38.65498423 52.97441611 33.8417586 51.06066633 28.9375 49.0625 C12.53938054 42.8687235 -3.89225327 36.99269468 -20.671875 31.9140625 C-29.57255434 28.85687264 -34.96498905 26.37951315 -41.0625 19.0625 C-41.96457507 11.44497717 -40.47615254 5.88980508 -37.0625 -0.9375 C-24.9932623 -6.97211885 -12.57788738 -2.83111355 0 0 Z " transform="translate(103.0625,393.9375)" style="fill: #F89A26;"/><path d="M0 0 C4.64128916 4.64128916 7.89136129 8.67408386 10 15 C10.34958654 23.56487016 9.7686885 28.69393451 7 37 C3.36767578 40.50846863 3.36767578 40.50846863 -1 43 C-7.78811779 43.66063998 -14.20543012 43.97316685 -21 44 C-23.9695166 44.03944229 -23.9695166 44.03944229 -26.99902344 44.0796814 C-33.62474642 44.14859246 -40.24892855 44.1647493 -46.875 44.16796875 C-49.2787793 44.17129715 -51.68255859 44.17462555 -54.15917969 44.17805481 C-59.20149546 44.18308851 -64.24381453 44.18546424 -69.28613281 44.18530273 C-77.03195533 44.1875091 -84.77763975 44.2057566 -92.5234375 44.22460938 C-97.43229118 44.22753998 -102.34114554 44.229527 -107.25 44.23046875 C-109.57272949 44.23765427 -111.89545898 44.24483978 -114.28857422 44.25224304 C-117.49471436 44.2476281 -117.49471436 44.2476281 -120.765625 44.24291992 C-122.65055664 44.24434494 -124.53548828 44.24576996 -126.47753906 44.24723816 C-131 44 -131 44 -135 42 C-135 41.34 -135 40.68 -135 40 C-135.66 40 -136.32 40 -137 40 C-137 39.01 -137 38.02 -137 37 C-137.66 37 -138.32 37 -139 37 C-140.29706875 31.81172499 -140.29030041 27.34152747 -140 22 C-136 14 -136 14 -132.25 11.5625 C-125.18683628 9.46036794 -118.35759838 9.44165219 -111 9 C-105.05810504 8.37371331 -99.12035056 7.7068486 -93.1875 7 C-88.72283203 6.4740625 -88.72283203 6.4740625 -84.16796875 5.9375 C-77.62041245 5.31265227 -77.62041245 5.31265227 -74 4 C-69.37858625 3.46787226 -64.75277056 2.9736715 -60.125 2.5 C-50.51641622 1.55448087 -50.51641622 1.55448087 -41 0 C-12.38255034 -2.47651007 -12.38255034 -2.47651007 0 0 Z " transform="translate(189,495)" style="fill: #F48A22;"/><path d="M0 0 C1.87236328 0.22083252 3.74472656 0.44166504 5.67382812 0.66918945 C11.7838986 1.393639 17.89195261 2.1337 24 2.875 C28.44789754 3.40771179 32.89581448 3.94026164 37.34375 4.47265625 C41.72929567 5.00153555 46.11471554 5.53145917 50.5 6.0625 C52.56378906 6.31209473 54.62757813 6.56168945 56.75390625 6.81884766 C83.76220796 10.13232478 83.76220796 10.13232478 90 13.875 C94 18.875 94 18.875 96 24.875 C95.9375 29.875 95.9375 29.875 95 34.875 C90 40.875 90 40.875 83 42.875 C77.67838998 43.62955664 72.34458169 44.30549539 67 44.875 C66.67 44.545 66.34 44.215 66 43.875 C60.58514381 43.79792842 55.16927291 43.79221403 49.75390625 43.8125 C47.25158669 43.81817993 47.25158669 43.81817993 44.69871521 43.82397461 C37.54300925 43.84029971 30.38735985 43.8679797 23.23168945 43.89550781 C-33.72617951 44.09609157 -33.72617951 44.09609157 -45 40.875 C-50 35.875 -50 35.875 -53 26.875 C-53.71627293 17.65298601 -52.98069922 11.73343655 -48 3.875 C-34.7517751 -6.72357992 -15.78600743 -1.92422606 0 0 Z " transform="translate(862,496.125)" style="fill: #F38922;"/><path d="M0 0 C20.79399594 5.71834888 42.4095144 14.43536743 60 27 C58.85358498 39.99270355 57.16130652 52.72796634 54.90234375 65.57421875 C54.10664758 70.35872946 53.53561766 75.17944102 53 80 C52.01 81.98 51.02 83.96 50 86 C49.34 86 48.68 86 48 86 C48 86.66 48 87.32 48 88 C33.88309106 101.09022466 18.00532415 112.77659463 -1 117 C-2.08179886 104.69069366 -2.16136614 92.46238903 -2.16796875 80.1171875 C-2.17129715 77.94907501 -2.17462555 75.78096252 -2.17805481 73.54714966 C-2.18309874 68.9868389 -2.18546392 64.42652448 -2.18530273 59.86621094 C-2.1875035 52.86387176 -2.2057253 45.86168664 -2.22460938 38.859375 C-2.22754088 34.42447971 -2.2295273 29.98958366 -2.23046875 25.5546875 C-2.23765427 23.45374725 -2.24483978 21.35280701 -2.25224304 19.1882019 C-2.22884059 4.45768118 -2.22884059 4.45768118 0 0 Z " transform="translate(519,602)" style="fill: #F18020;"/><path d="M0 0 C0.16740341 10.87498879 0.33379791 21.74999279 0.5 32.625 C0.57154297 37.27142578 0.57154297 37.27142578 0.64453125 42.01171875 C0.71220703 46.44931641 0.71220703 46.44931641 0.78125 50.9765625 C0.82314453 53.71018066 0.86503906 56.44379883 0.90820312 59.26025391 C1.07955427 71.84089146 1.07955427 71.84089146 0 74 C-7.63847324 74 -14.30481978 73.36181202 -21.8125 72.1875 C-24.00519531 71.85105469 -26.19789063 71.51460937 -28.45703125 71.16796875 C-39.52469338 69.19230847 -50.19983232 66.08576219 -61 63 C-63.083125 62.484375 -65.16625 61.96875 -67.3125 61.4375 C-79.06666667 58.46666667 -79.06666667 58.46666667 -84 56 C-84 55.34 -84 54.68 -84 54 C-87.465 53.505 -87.465 53.505 -91 53 C-96.58925002 50.77961301 -100.95632149 48.36245234 -106 45 C-105.67 44.01 -105.34 43.02 -105 42 C-104.34 42 -103.68 42 -103 42 C-103 41.34 -103 40.68 -103 40 C-91.2717992 29.59595091 -77.61288408 21.5824501 -63 16 C-61.35 15.21625 -59.7 14.4325 -58 13.625 C-12.53333333 -6.26666667 -12.53333333 -6.26666667 0 0 Z " transform="translate(484,665)" style="fill: #ED811D;"/><path d="M0 0 C2.475 0.495 2.475 0.495 5 1 C5.04928746 13.92317136 5.08566608 26.84628851 5.10986328 39.76953125 C5.11994624 44.16960604 5.1336123 48.5696741 5.15087891 52.96972656 C5.17502636 59.27931375 5.18646 65.58881268 5.1953125 71.8984375 C5.20563507 73.87862885 5.21595764 75.85882019 5.22659302 77.89901733 C5.22698283 82.5999517 5.12434813 87.30071052 5 92 C4.34 92.66 3.68 93.32 3 94 C-5.47712758 94 -12.76259311 91.97233686 -21 90 C-31.6127525 88.12716132 -42.28253525 87.07945688 -53 86 C-53 85.01 -53 84.02 -53 83 C-52.34 83 -51.68 83 -51 83 C-50.34 81.68 -49.68 80.36 -49 79 C-46.4108944 75.2781607 -43.74769297 71.60634703 -41 68 C-40.34 68 -39.68 68 -39 68 C-38.34 66.68 -37.68 65.36 -37 64 C-35.00764529 61.16725463 -32.98199883 58.35784401 -30.9375 55.5625 C-29.76703125 53.94730469 -28.5965625 52.33210937 -27.390625 50.66796875 C-24.65632989 46.90358781 -21.92193129 43.13928203 -19.1875 39.375 C-11.40712465 27.53024947 -6.31387743 15.44914729 -2 2 C-1.34 1.34 -0.68 0.68 0 0 Z " transform="translate(480,473)" style="fill: #E88F29;"/><path d="M0 0 C0 0.66 0 1.32 0 2 C2.475 2.495 2.475 2.495 5 3 C5.99 3.33 6.98 3.66 8 4 C8 4.66 8 5.32 8 6 C9.32 6.66 10.64 7.32 12 8 C14.50231227 13.43359236 16.01374106 18.08244634 17 24 C16.34 24 15.68 24 15 24 C14.505 26.475 14.505 26.475 14 29 C9.84871719 34.37224834 7.16098938 36.91950531 1 40 C-8 40 -8 40 -14 38 C-14 37.34 -14 36.68 -14 36 C-15.65 35.34 -17.3 34.68 -19 34 C-19.33 32.68 -19.66 31.36 -20 30 C-20.66 30 -21.32 30 -22 30 C-24.61827399 20.83604104 -24.3754243 17.00113147 -21 8 C-13.87419668 2.06183057 -9.30265238 0 0 0 Z " transform="translate(496,407)" style="fill: #F1A433;"/></svg>